<svg width="384" height="288" viewBox="0 0 384 288" fill="none" xmlns="http://www.w3.org/2000/svg">
<rect width="384" height="288" fill="white"/>
<path d="M118.798 186C136.762 186 145.839 175.96 145.839 160.946C145.839 145.651 136.479 135.424 122.674 135.424C117.19 135.424 113.314 137.113 110.572 139.834V117.032H106.695L91 119.941V121.818L91.851 122.568C93.742 123.882 94.9711 126.322 94.9711 128.574V185.062H98.8477L101.401 184.029C102.252 183.654 103.292 183.466 104.332 183.466C105.655 183.466 106.979 183.748 108.303 184.311C111.707 185.625 115.394 186 118.798 186ZM110.572 169.204V158.694C111.045 148.091 115.016 141.335 120.689 141.335C126.74 141.335 130.238 149.123 130.238 160.477C130.238 172.582 126.267 180.182 120.027 180.182C114.165 180.182 110.856 173.332 110.572 169.204Z" fill="#5357FF"/>
<path d="M149.642 125.008C149.642 129.887 153.708 133.922 158.624 133.922C163.635 133.922 167.701 129.887 167.701 125.008C167.701 120.129 163.635 116 158.624 116C153.708 116 149.642 120.129 149.642 125.008ZM169.498 182.434C167.796 181.027 166.472 178.681 166.472 176.429V136.456H162.595L146.9 139.365V141.335L147.751 141.992C149.642 143.306 150.871 145.745 150.871 147.997V176.429C150.871 178.681 149.642 181.027 147.751 182.434L146.9 183.091V185.062H170.443V183.091L169.498 182.434Z" fill="#5357FF"/>
<path d="M194.142 182.434C192.44 181.027 191.116 178.681 191.116 176.429V117.032H187.24L171.545 119.941V121.818L172.395 122.568C174.286 123.882 175.516 126.322 175.516 128.574V176.429C175.516 178.681 174.286 181.027 172.395 182.434L171.545 183.091V185.062H195.088V183.091L194.142 182.434Z" fill="#5357FF"/>
<path d="M218.795 182.434C217.093 181.027 215.77 178.681 215.77 176.429V117.032H211.893L196.198 119.941V121.818L197.049 122.568C198.94 123.882 200.169 126.322 200.169 128.574V176.429C200.169 178.681 198.94 181.027 197.049 182.434L196.198 183.091V185.062H219.741V183.091L218.795 182.434Z" fill="#5357FF"/>
<path d="M223.971 125.008C223.971 129.887 228.037 133.922 232.954 133.922C237.965 133.922 242.03 129.887 242.03 125.008C242.03 120.129 237.965 116 232.954 116C228.037 116 223.971 120.129 223.971 125.008ZM243.827 182.434C242.125 181.027 240.801 178.681 240.801 176.429V136.456H236.925L221.229 139.365V141.335L222.08 141.992C223.971 143.306 225.2 145.745 225.2 147.997V176.429C225.2 178.681 223.971 181.027 222.08 182.434L221.229 183.091V185.062H244.772V183.091L243.827 182.434Z" fill="#5357FF"/>
<path d="M273.861 135.424C257.409 135.424 246.347 145.933 246.347 161.509C246.347 176.335 256.463 186 270.268 186C282.843 186 290.88 177.836 293.905 165.638H291.92C290.974 168.922 285.396 176.335 276.319 176.335C270.93 176.335 266.769 173.708 264.406 169.11C267.148 169.767 269.795 170.142 272.348 170.142C284.829 170.142 294 162.166 294 151.563C294 143.024 287.854 135.424 273.861 135.424ZM262.987 166.107C262.42 163.949 262.042 161.509 262.042 158.882C262.042 148.466 267.715 141.335 273.388 141.335C282.465 141.335 282.843 160.477 262.987 166.107Z" fill="#5357FF"/>
<path d="M332.19 132.828C332.19 136.455 332.819 139.117 334.077 140.813C335.364 142.51 337.046 143.358 339.123 143.358C342.048 143.358 344.651 142.919 346.932 142.042L347.064 142.349C344.724 143.255 342.077 143.709 339.123 143.709C336.198 143.709 333.814 142.831 331.971 141.076C330.128 139.321 329.207 136.616 329.207 132.96C329.207 129.303 330.172 126.466 332.103 124.448C334.033 122.43 336.49 121.421 339.474 121.421C341.872 121.421 343.89 122.137 345.528 123.57C347.166 125.004 347.985 127.124 347.985 129.932C347.985 130.079 347.985 130.225 347.985 130.371H332.322C332.234 131.161 332.19 131.98 332.19 132.828ZM345.002 130.02C344.973 127.212 344.431 125.135 343.378 123.79C342.325 122.444 340.965 121.772 339.298 121.772C337.631 121.772 336.139 122.503 334.823 123.965C333.536 125.428 332.717 127.446 332.366 130.02H345.002Z" fill="black"/>
<path d="M323.148 123.483V122.561C321.831 123.088 320.632 124.155 319.55 125.764C318.468 127.344 317.897 128.835 317.839 130.239V143.533H314.768V121.596H317.839V128.572C318.307 126.876 319.199 125.282 320.515 123.79C321.831 122.269 323.323 121.479 324.99 121.421H325.166C325.751 121.421 326.233 121.625 326.614 122.035C327.023 122.415 327.228 122.898 327.228 123.483C327.228 124.068 327.023 124.55 326.614 124.931C326.233 125.311 325.751 125.501 325.166 125.501C324.581 125.501 324.098 125.311 323.718 124.931C323.338 124.55 323.148 124.068 323.148 123.483Z" fill="black"/>
<path fill-rule="evenodd" clip-rule="evenodd" d="M332.299 130.577C332.226 131.303 332.189 132.053 332.189 132.828C332.189 136.455 332.818 139.117 334.076 140.813C334.835 141.814 335.732 142.52 336.766 142.93C337.485 143.215 338.27 143.358 339.121 143.358C342.046 143.358 344.649 142.919 346.931 142.042L347.062 142.349C347.058 142.35 347.054 142.352 347.051 142.353C346.882 142.419 346.711 142.482 346.539 142.542C344.33 143.32 341.857 143.709 339.121 143.709C338.233 143.709 337.396 143.628 336.608 143.466C334.799 143.095 333.253 142.299 331.97 141.076C330.127 139.321 329.205 136.616 329.205 132.96C329.205 129.303 330.171 126.466 332.101 124.448C333.467 123.02 335.096 122.097 336.989 121.68C337.719 121.519 338.488 121.433 339.297 121.422C339.355 121.421 339.413 121.421 339.472 121.421C340.137 121.421 340.773 121.476 341.379 121.586C342.96 121.873 344.343 122.535 345.527 123.571C347.142 124.984 347.96 127.065 347.983 129.814C347.984 129.853 347.984 129.893 347.984 129.932V130.371H332.321C332.313 130.44 332.306 130.508 332.299 130.577ZM332.825 130.928C332.773 131.543 332.746 132.176 332.746 132.828C332.746 136.41 333.371 138.926 334.521 140.479C335.706 142.039 337.225 142.801 339.121 142.801C341.991 142.801 344.524 142.37 346.731 141.522L347.231 141.329L347.802 142.66L347.264 142.868C344.849 143.804 342.132 144.266 339.121 144.266C336.076 144.266 333.547 143.348 331.585 141.48C329.591 139.581 328.648 136.701 328.648 132.96C328.648 129.206 329.641 126.214 331.699 124.063C333.742 121.927 336.348 120.864 339.472 120.864C341.991 120.864 344.143 121.62 345.894 123.151C347.685 124.719 348.541 127.013 348.541 129.932V130.928H332.825ZM344.987 129.463C344.896 126.936 344.359 125.045 343.377 123.79C342.764 123.007 342.047 122.452 341.227 122.125C340.687 121.909 340.102 121.792 339.472 121.774C339.414 121.773 339.355 121.772 339.297 121.772C338.549 121.772 337.837 121.919 337.16 122.212C336.327 122.574 335.548 123.158 334.821 123.965C333.629 125.321 332.838 127.153 332.449 129.463C332.43 129.579 332.411 129.696 332.394 129.814C332.384 129.882 332.374 129.951 332.364 130.02H345C345 129.951 344.998 129.882 344.997 129.814C344.995 129.696 344.992 129.579 344.987 129.463ZM344.43 129.463H333.014C333.396 127.272 334.147 125.576 335.238 124.336C336.468 122.969 337.817 122.329 339.297 122.329C340.788 122.329 341.988 122.919 342.938 124.133C343.815 125.254 344.338 127.003 344.43 129.463Z" fill="black"/>
<path fill-rule="evenodd" clip-rule="evenodd" d="M321.203 123.075C322.344 122.021 323.606 121.469 324.989 121.421H325.164C325.749 121.421 326.232 121.625 326.612 122.035C327.022 122.415 327.226 122.898 327.226 123.483C327.226 124.068 327.022 124.55 326.612 124.931C326.232 125.311 325.749 125.501 325.164 125.501C324.579 125.501 324.097 125.311 323.716 124.931C323.336 124.55 323.146 124.068 323.146 123.483V122.561C322.958 122.637 322.772 122.723 322.589 122.82C322.239 123.006 321.898 123.232 321.565 123.498C321.334 123.683 321.108 123.888 320.885 124.112C320.884 124.113 320.883 124.114 320.882 124.115C320.419 124.581 319.975 125.13 319.548 125.764C319.059 126.478 318.674 127.175 318.394 127.853C318.294 128.095 318.208 128.335 318.134 128.572C318.127 128.597 318.119 128.623 318.112 128.648C318.108 128.66 318.105 128.672 318.101 128.683C317.946 129.214 317.858 129.732 317.837 130.239V143.533H314.766V121.596H317.837V128.572C317.982 128.047 318.168 127.531 318.394 127.025C318.622 126.517 318.89 126.018 319.2 125.53C319.201 125.529 319.201 125.528 319.202 125.527C319.578 124.933 320.016 124.354 320.514 123.79C320.738 123.53 320.968 123.292 321.203 123.075ZM320.094 123.423C321.489 121.813 323.117 120.929 324.969 120.864L324.979 120.864H325.164C325.889 120.864 326.517 121.122 327.006 121.641C327.525 122.13 327.783 122.758 327.783 123.483C327.783 124.211 327.522 124.842 326.999 125.332C326.505 125.821 325.879 126.058 325.164 126.058C324.446 126.058 323.817 125.819 323.322 125.325C322.828 124.83 322.589 124.201 322.589 123.483V123.46C321.687 124.004 320.825 124.864 320.011 126.075L320.008 126.079C318.967 127.598 318.45 128.986 318.394 130.251V144.09H314.209V121.039H318.394V125.791C318.856 124.973 319.424 124.183 320.094 123.423Z" fill="black"/>
<path fill-rule="evenodd" clip-rule="evenodd" d="M331.416 104.301C316.169 104.301 303.808 116.661 303.808 131.908C303.808 147.155 316.169 159.515 331.416 159.515C341.519 159.515 350.355 154.089 355.169 145.987L357.147 147.162C351.936 155.933 342.363 161.816 331.416 161.816C314.898 161.816 301.508 148.426 301.508 131.908C301.508 115.39 314.898 102 331.416 102C347.037 102 359.861 113.976 361.207 129.248L366.681 123.774C367.13 123.325 367.858 123.325 368.307 123.774C368.757 124.223 368.757 124.952 368.307 125.401L360.987 132.721C360.538 133.171 359.809 133.171 359.36 132.721L352.04 125.401C351.59 124.952 351.59 124.223 352.04 123.774C352.489 123.325 353.217 123.325 353.666 123.774L358.869 128.977C357.406 115.108 345.673 104.301 331.416 104.301Z" fill="#191919"/>
</svg>
