<svg width="384" height="288" viewBox="0 0 384 288" fill="none" xmlns="http://www.w3.org/2000/svg">
<rect width="384" height="288" fill="white"/>
<path d="M118.298 179C136.262 179 145.339 168.96 145.339 153.946C145.339 138.651 135.979 128.424 122.174 128.424C116.69 128.424 112.814 130.113 110.072 132.834V110.032H106.195L90.5 112.941V114.818L91.351 115.568C93.242 116.882 94.4711 119.322 94.4711 121.574V178.062H98.3477L100.901 177.029C101.752 176.654 102.792 176.466 103.832 176.466C105.155 176.466 106.479 176.748 107.803 177.311C111.207 178.625 114.894 179 118.298 179ZM110.072 162.204V151.694C110.545 141.091 114.516 134.335 120.189 134.335C126.24 134.335 129.738 142.123 129.738 153.477C129.738 165.582 125.767 173.182 119.527 173.182C113.665 173.182 110.356 166.332 110.072 162.204Z" fill="#5357FF"/>
<path d="M149.142 118.008C149.142 122.887 153.208 126.922 158.124 126.922C163.135 126.922 167.201 122.887 167.201 118.008C167.201 113.129 163.135 109 158.124 109C153.208 109 149.142 113.129 149.142 118.008ZM168.998 175.434C167.296 174.027 165.972 171.681 165.972 169.429V129.456H162.095L146.4 132.365V134.335L147.251 134.992C149.142 136.306 150.371 138.745 150.371 140.997V169.429C150.371 171.681 149.142 174.027 147.251 175.434L146.4 176.091V178.062H169.943V176.091L168.998 175.434Z" fill="#5357FF"/>
<path d="M193.642 175.434C191.94 174.027 190.616 171.681 190.616 169.429V110.032H186.74L171.045 112.941V114.818L171.895 115.568C173.786 116.882 175.016 119.322 175.016 121.574V169.429C175.016 171.681 173.786 174.027 171.895 175.434L171.045 176.091V178.062H194.588V176.091L193.642 175.434Z" fill="#5357FF"/>
<path d="M218.295 175.434C216.593 174.027 215.27 171.681 215.27 169.429V110.032H211.393L195.698 112.941V114.818L196.549 115.568C198.44 116.882 199.669 119.322 199.669 121.574V169.429C199.669 171.681 198.44 174.027 196.549 175.434L195.698 176.091V178.062H219.241V176.091L218.295 175.434Z" fill="#5357FF"/>
<path d="M223.471 118.008C223.471 122.887 227.537 126.922 232.454 126.922C237.465 126.922 241.53 122.887 241.53 118.008C241.53 113.129 237.465 109 232.454 109C227.537 109 223.471 113.129 223.471 118.008ZM243.327 175.434C241.625 174.027 240.301 171.681 240.301 169.429V129.456H236.425L220.729 132.365V134.335L221.58 134.992C223.471 136.306 224.7 138.745 224.7 140.997V169.429C224.7 171.681 223.471 174.027 221.58 175.434L220.729 176.091V178.062H244.272V176.091L243.327 175.434Z" fill="#5357FF"/>
<path d="M273.361 128.424C256.909 128.424 245.847 138.933 245.847 154.509C245.847 169.335 255.963 179 269.768 179C282.343 179 290.38 170.836 293.405 158.638H291.42C290.474 161.922 284.896 169.335 275.819 169.335C270.43 169.335 266.269 166.708 263.906 162.11C266.648 162.767 269.295 163.142 271.848 163.142C284.329 163.142 293.5 155.166 293.5 144.563C293.5 136.024 287.354 128.424 273.361 128.424ZM262.487 159.107C261.92 156.949 261.542 154.509 261.542 151.882C261.542 141.466 267.215 134.335 272.888 134.335C281.965 134.335 282.343 153.477 262.487 159.107Z" fill="#5357FF"/>
</svg>
