<svg width="80" height="80" viewBox="0 0 80 80" fill="none" xmlns="http://www.w3.org/2000/svg">
<rect width="80" height="80" fill="white"/>
<rect x="17.5" y="12.5" width="45" height="35" fill="#9FBFF4"/>
<path fill-rule="evenodd" clip-rule="evenodd" d="M54.8071 7.5C58.1738 7.5 61.4014 8.78418 63.7817 11.0693C66.1621 13.3551 67.5 16.4551 67.5 19.6875V52.1875C67.5 55.4199 66.1621 58.5199 63.7817 60.8057C61.4014 63.0908 58.1738 64.375 54.8071 64.375L59.0381 68.4375V72.5H54.8071L46.3452 64.2529L40 64.3445L33.6548 64.2529L25.1929 72.5H20.9619V68.4375L25.1929 64.375C21.8262 64.375 18.5986 63.0908 16.2183 60.8057C13.8379 58.5199 12.5 55.4199 12.5 52.1875V19.6875C12.5 16.4551 13.8379 13.3551 16.2183 11.0693C18.5986 8.78418 21.8262 7.5 25.1929 7.5H54.8071ZM20.9619 15.625V44.0625H59.0381V15.625H20.9619ZM28.1836 49.3152C27.3901 48.5529 26.3159 48.125 25.1929 48.125C24.0698 48.125 22.9956 48.5529 22.2021 49.3152C21.4087 50.0769 20.9619 51.1102 20.9619 52.1875C20.9619 52.7045 21.0645 53.2111 21.2598 53.6823C21.4697 54.1937 21.7896 54.6637 22.2021 55.0604C22.9956 55.8221 24.0698 56.25 25.1929 56.25C26.3159 56.25 27.3901 55.8221 28.1836 55.0604C28.9771 54.2981 29.4238 53.2648 29.4238 52.1875C29.4238 51.1102 28.9771 50.0769 28.1836 49.3152ZM51.8164 49.3152C52.6099 48.5529 53.6841 48.125 54.8071 48.125C55.9302 48.125 57.0044 48.5529 57.7979 49.3152C58.5913 50.0769 59.0381 51.1102 59.0381 52.1875C59.0381 53.2648 58.5913 54.2981 57.7979 55.0604C57.0044 55.8221 55.9302 56.25 54.8071 56.25C53.6841 56.25 52.6099 55.8221 51.8164 55.0604C51.46 54.7168 51.1719 54.3182 50.9644 53.8855C50.7129 53.3582 50.5762 52.7795 50.5762 52.1875C50.5762 51.1102 51.0229 50.0769 51.8164 49.3152Z" fill="#3B4258"/>
</svg>
