<svg width="128" height="96" viewBox="0 0 128 96" fill="none" xmlns="http://www.w3.org/2000/svg">
<rect width="128" height="96" fill="white"/>
<path d="M24.71 59.3337V37.6664C24.71 37.1141 25.1577 36.6664 25.71 36.6664H35.1225C37.5917 36.6664 39.5368 37.3284 40.9578 38.6523C42.3787 39.9535 43.0892 41.7226 43.0892 43.9596C43.0892 46.1967 42.3787 47.9772 40.9578 49.3012C39.5368 50.6023 37.5917 51.2529 35.1225 51.2529H27.3306V59.3337H24.71ZM27.3306 48.8561H34.9478C36.7648 48.8561 38.1392 48.4223 39.0709 47.5549C40.0027 46.6875 40.4686 45.4891 40.4686 43.9596C40.4686 42.4531 40.0027 41.266 39.0709 40.3986C38.1392 39.5312 36.7648 39.0975 34.9478 39.0975H27.3306V48.8561Z" fill="#191919"/>
<path d="M46.6508 59.3337V36.6664H49.2714V59.3337H46.6508Z" fill="#191919"/>
<path d="M54.9426 59.3337V36.6664H57.9825L66.2637 47.4179L74.405 36.6664H77.4449V59.3337H74.8243V40.5698L66.2637 51.3556L57.5632 40.5698V59.3337H54.9426Z" fill="#191919"/>
<path d="M80.3683 59.3337L90.1869 36.6664H93.4714L103.29 59.3337H100.39L97.5595 52.7595H86.0987L83.2685 59.3337H80.3683ZM87.112 50.3969H96.5462L91.8291 39.3372L87.112 50.3969Z" fill="#191919"/>
</svg>
