<svg width="80" height="80" viewBox="0 0 80 80" fill="none" xmlns="http://www.w3.org/2000/svg">
<rect width="80" height="80" fill="white"/>
<path d="M40.2759 66C53.3793 66 60 58.4299 60 47.1102C60 35.5782 53.1724 27.8667 43.1034 27.8667C39.1034 27.8667 36.2759 29.1401 34.2759 31.1918V14H31.4483L20 16.1932V17.6082L20.6207 18.1742C22 19.1646 22.8966 21.0041 22.8966 22.702V65.2925H25.7241L27.5862 64.5143C28.2069 64.2313 28.9655 64.0898 29.7241 64.0898C30.6897 64.0898 31.6552 64.302 32.6207 64.7265C35.1034 65.717 37.7931 66 40.2759 66ZM34.2759 53.3361V45.4122C34.6207 37.4177 37.5172 32.3238 41.6552 32.3238C46.069 32.3238 48.6207 38.1959 48.6207 46.7565C48.6207 55.883 45.7241 61.6136 41.1724 61.6136C36.8966 61.6136 34.4828 56.449 34.2759 53.3361Z" fill="#5357FF"/>
<path d="M59.2787 20.3269C59.2787 21.5419 59.4894 22.4336 59.9107 23.0019C60.3418 23.5702 60.9052 23.8543 61.6009 23.8543C62.5807 23.8543 63.4528 23.7073 64.2171 23.4134L64.2611 23.5163C63.4773 23.82 62.5905 23.9719 61.6009 23.9719C60.6211 23.9719 59.8225 23.678 59.2052 23.0901C58.5879 22.5022 58.2793 21.5958 58.2793 20.371C58.2793 19.1462 58.6026 18.1958 59.2493 17.5197C59.896 16.8437 60.7191 16.5056 61.7185 16.5056C62.5219 16.5056 63.198 16.7457 63.7467 17.2258C64.2954 17.7059 64.5698 18.4163 64.5698 19.3569C64.5698 19.4059 64.5698 19.4549 64.5698 19.5039H59.3228C59.2934 19.7684 59.2787 20.0428 59.2787 20.3269ZM63.5704 19.3863C63.5606 18.4457 63.3793 17.75 63.0266 17.2993C62.6738 16.8486 62.2182 16.6232 61.6597 16.6232C61.1012 16.6232 60.6015 16.8682 60.1606 17.3581C59.7294 17.848 59.4551 18.5241 59.3375 19.3863H63.5704Z" fill="black"/>
<path d="M56.2496 17.1964V16.8877C55.8087 17.0641 55.4069 17.4218 55.0444 17.9607C54.6819 18.4898 54.4908 18.9895 54.4712 19.4598V23.9131H53.4424V16.5644H54.4712V18.9013C54.628 18.333 54.9268 17.799 55.3677 17.2993C55.8087 16.7898 56.3084 16.5252 56.8669 16.5056H56.9257C57.1216 16.5056 57.2833 16.5742 57.4107 16.7114C57.5479 16.8388 57.6164 17.0004 57.6164 17.1964C57.6164 17.3924 57.5479 17.554 57.4107 17.6814C57.2833 17.8088 57.1216 17.8725 56.9257 17.8725C56.7297 17.8725 56.568 17.8088 56.4407 17.6814C56.3133 17.554 56.2496 17.3924 56.2496 17.1964Z" fill="black"/>
<path fill-rule="evenodd" clip-rule="evenodd" d="M59.3146 19.573C59.2901 19.8162 59.2778 20.0675 59.2778 20.327C59.2778 21.542 59.4885 22.4337 59.9098 23.002C60.1642 23.3373 60.4647 23.5737 60.8112 23.7112C61.0519 23.8067 61.3149 23.8544 61.6 23.8544C62.5798 23.8544 63.4519 23.7074 64.2162 23.4135L64.2603 23.5164C64.2589 23.5169 64.2576 23.5174 64.2563 23.5179C64.1997 23.5398 64.1426 23.5608 64.085 23.5811C63.3449 23.8417 62.5166 23.972 61.6 23.972C61.3027 23.972 61.022 23.9449 60.758 23.8908C60.1522 23.7665 59.6343 23.4996 59.2043 23.0901C58.5871 22.5022 58.2784 21.5959 58.2784 20.3711C58.2784 19.1463 58.6017 18.1959 59.2484 17.5198C59.706 17.0415 60.2518 16.7324 60.8858 16.5925C61.1304 16.5385 61.388 16.5097 61.6588 16.5061C61.6783 16.5058 61.6979 16.5057 61.7176 16.5057C61.9404 16.5057 62.1533 16.5242 62.3565 16.5611C62.8862 16.6573 63.3493 16.8789 63.7458 17.2259C64.2868 17.6992 64.5611 18.3964 64.5687 19.3174C64.5688 19.3305 64.5689 19.3437 64.5689 19.357V19.504H59.3219C59.3194 19.5269 59.3169 19.5499 59.3146 19.573ZM59.491 19.6906C59.4733 19.8964 59.4644 20.1085 59.4644 20.327C59.4644 21.5271 59.6738 22.3696 60.0591 22.89C60.4559 23.4126 60.9648 23.6678 61.6 23.6678C62.5613 23.6678 63.41 23.5236 64.1492 23.2393L64.3169 23.1748L64.5079 23.6205L64.3277 23.6904C63.5189 24.0038 62.6087 24.1586 61.6 24.1586C60.58 24.1586 59.7328 23.8512 59.0756 23.2253C58.4077 22.5891 58.0918 21.6244 58.0918 20.3711C58.0918 19.1136 58.4244 18.1113 59.1136 17.3908C59.7981 16.6752 60.6711 16.3191 61.7176 16.3191C62.5613 16.3191 63.2824 16.5724 63.8687 17.0854C64.469 17.6107 64.7555 18.3792 64.7555 19.357V19.6906H59.491ZM63.5652 19.1998C63.5345 18.3532 63.3547 17.7197 63.0257 17.2994C62.8204 17.0371 62.5803 16.8511 62.3054 16.7415C62.1246 16.6693 61.9286 16.6302 61.7176 16.6241C61.6981 16.6236 61.6785 16.6233 61.6588 16.6233C61.4085 16.6233 61.1699 16.6725 60.9432 16.7709C60.6641 16.8921 60.403 17.0878 60.1597 17.3581C59.7602 17.8122 59.4953 18.426 59.365 19.1998C59.3585 19.2386 59.3523 19.2778 59.3464 19.3174C59.343 19.3402 59.3398 19.3632 59.3366 19.3864H63.5695C63.5692 19.3632 63.5689 19.3402 63.5684 19.3174C63.5677 19.2777 63.5666 19.2385 63.5652 19.1998ZM63.3784 19.1998H59.5543C59.6821 18.4659 59.9339 17.8975 60.2991 17.4822C60.7114 17.0244 61.1631 16.8099 61.6588 16.8099C62.1583 16.8099 62.5603 17.0075 62.8787 17.4144C63.1725 17.7898 63.3477 18.3758 63.3784 19.1998Z" fill="black"/>
<path fill-rule="evenodd" clip-rule="evenodd" d="M55.5977 17.0599C55.98 16.7067 56.4028 16.522 56.866 16.5057H56.9248C57.1207 16.5057 57.2824 16.5743 57.4098 16.7115C57.547 16.8388 57.6156 17.0005 57.6156 17.1965C57.6156 17.3924 57.547 17.5541 57.4098 17.6815C57.2824 17.8089 57.1207 17.8726 56.9248 17.8726C56.7288 17.8726 56.5671 17.8089 56.4398 17.6815C56.3124 17.5541 56.2487 17.3924 56.2487 17.1965V16.8878C56.1857 16.913 56.1235 16.9419 56.0621 16.9745C55.9449 17.0368 55.8306 17.1125 55.7192 17.2017C55.6418 17.2637 55.5659 17.3321 55.4913 17.4071C55.491 17.4075 55.4906 17.4078 55.4902 17.4082C55.3352 17.5643 55.1863 17.7484 55.0435 17.9607C54.8796 18.2 54.7507 18.4332 54.6569 18.6604C54.6234 18.7415 54.5944 18.8218 54.5699 18.9014C54.5673 18.9098 54.5647 18.9183 54.5622 18.9267C54.561 18.9307 54.5599 18.9347 54.5587 18.9386C54.5069 19.1162 54.4774 19.29 54.4703 19.4599V23.9132H53.4415V16.5645H54.4703V18.9014C54.5189 18.7253 54.5811 18.5526 54.6569 18.3831C54.7331 18.2128 54.8231 18.0459 54.9268 17.8822C54.927 17.8819 54.9272 17.8816 54.9274 17.8812C55.0536 17.6824 55.2 17.4884 55.3669 17.2994C55.4421 17.2124 55.519 17.1326 55.5977 17.0599ZM55.2263 17.1766C55.6935 16.637 56.2388 16.341 56.8594 16.3192L56.8627 16.3191H56.9248C57.1676 16.3191 57.378 16.4056 57.5418 16.5794C57.7156 16.7433 57.8022 16.9537 57.8022 17.1965C57.8022 17.4404 57.7148 17.6517 57.5393 17.8159C57.374 17.9799 57.1643 18.0592 56.9248 18.0592C56.6841 18.0592 56.4734 17.9791 56.3078 17.8134C56.1422 17.6478 56.0621 17.4371 56.0621 17.1965V17.189C55.7601 17.371 55.4713 17.6592 55.1983 18.0649L55.1975 18.0662C54.8488 18.5751 54.6755 19.04 54.6569 19.4639V24.0998H53.2549V16.3779H54.6569V17.9698C54.8117 17.6956 55.0017 17.4312 55.2263 17.1766Z" fill="black"/>
<path fill-rule="evenodd" clip-rule="evenodd" d="M59.0189 10.7707C53.9112 10.7707 49.7707 14.9112 49.7707 20.0189C49.7707 25.1265 53.9112 29.267 59.0189 29.267C62.4032 29.267 65.3634 27.4494 66.9758 24.7351L67.6384 25.1288C65.8929 28.067 62.6862 30.0377 59.0189 30.0377C53.4856 30.0377 49 25.5521 49 20.0189C49 14.4856 53.4856 10 59.0189 10C64.2518 10 68.5477 14.0119 68.9986 19.1277L70.8322 17.2941C70.9827 17.1436 71.2267 17.1436 71.3771 17.2941C71.5276 17.4446 71.5276 17.6886 71.3771 17.839L68.9248 20.2913C68.7744 20.4418 68.5304 20.4418 68.3799 20.2913L65.9276 17.839C65.7771 17.6886 65.7771 17.4446 65.9276 17.2941C66.0781 17.1436 66.3221 17.1436 66.4726 17.2941L68.2155 19.0371C67.7253 14.391 63.7948 10.7707 59.0189 10.7707Z" fill="#191919"/>
</svg>
