<svg width="128" height="96" viewBox="0 0 128 96" fill="none" xmlns="http://www.w3.org/2000/svg">
<rect width="128" height="96" fill="white"/>
<path d="M39.3116 60C45.3293 60 48.3698 56.5576 48.3698 51.4102C48.3698 46.1662 45.2343 42.6595 40.6102 42.6595C38.7732 42.6595 37.4746 43.2386 36.5561 44.1716V36.3539H35.2576L30 37.3512V37.9946L30.285 38.252C30.9185 38.7024 31.3302 39.5389 31.3302 40.311V59.6783H32.6288L33.4839 59.3244C33.769 59.1957 34.1174 59.1314 34.4658 59.1314C34.9092 59.1314 35.3526 59.2279 35.796 59.4209C36.9362 59.8713 38.1714 60 39.3116 60ZM36.5561 54.2413V50.6381C36.7145 47.0027 38.0447 44.6863 39.945 44.6863C41.9721 44.6863 43.1439 47.3566 43.1439 51.2493C43.1439 55.3995 41.8137 58.0054 39.7233 58.0054C37.7597 58.0054 36.6511 55.6568 36.5561 54.2413Z" fill="#5357FF"/>
<path d="M49.6436 39.0885C49.6436 40.7614 51.0055 42.1448 52.6525 42.1448C54.3311 42.1448 55.693 40.7614 55.693 39.0885C55.693 37.4155 54.3311 36 52.6525 36C51.0055 36 49.6436 37.4155 49.6436 39.0885ZM56.2948 58.7775C55.7247 58.2949 55.2813 57.4906 55.2813 56.7185V43.0134H53.9827L48.7251 44.0107V44.6863L49.0102 44.9115C49.6436 45.3619 50.0554 46.1984 50.0554 46.9705V56.7185C50.0554 57.4906 49.6436 58.2949 49.0102 58.7775L48.7251 59.0027V59.6783H56.6115V59.0027L56.2948 58.7775Z" fill="#5357FF"/>
<path d="M64.5501 58.7775C63.98 58.2949 63.5366 57.4906 63.5366 56.7185V36.3539H62.238L56.9804 37.3512V37.9946L57.2655 38.252C57.8989 38.7024 58.3107 39.5389 58.3107 40.311V56.7185C58.3107 57.4906 57.8989 58.2949 57.2655 58.7775L56.9804 59.0027V59.6783H64.8668V59.0027L64.5501 58.7775Z" fill="#5357FF"/>
<path d="M72.8083 58.7775C72.2382 58.2949 71.7948 57.4906 71.7948 56.7185V36.3539H70.4962L65.2387 37.3512V37.9946L65.5237 38.252C66.1572 38.7024 66.5689 39.5389 66.5689 40.311V56.7185C66.5689 57.4906 66.1572 58.2949 65.5237 58.7775L65.2387 59.0027V59.6783H73.125V59.0027L72.8083 58.7775Z" fill="#5357FF"/>
<path d="M74.5421 39.0885C74.5421 40.7614 75.904 42.1448 77.551 42.1448C79.2296 42.1448 80.5915 40.7614 80.5915 39.0885C80.5915 37.4155 79.2296 36 77.551 36C75.904 36 74.5421 37.4155 74.5421 39.0885ZM81.1933 58.7775C80.6232 58.2949 80.1797 57.4906 80.1797 56.7185V43.0134H78.8812L73.6236 44.0107V44.6863L73.9087 44.9115C74.5421 45.3619 74.9538 46.1984 74.9538 46.9705V56.7185C74.9538 57.4906 74.5421 58.2949 73.9087 58.7775L73.6236 59.0027V59.6783H81.51V59.0027L81.1933 58.7775Z" fill="#5357FF"/>
<path d="M91.2538 42.6595C85.7429 42.6595 82.0373 46.2627 82.0373 51.6032C82.0373 56.6863 85.4262 60 90.0503 60C94.2627 60 96.9548 57.2011 97.9683 53.0188H97.3032C96.9865 54.1448 95.1178 56.6863 92.0773 56.6863C90.272 56.6863 88.8784 55.7855 88.0866 54.2091C89.0051 54.4343 89.892 54.563 90.7471 54.563C94.9278 54.563 98 51.8284 98 48.193C98 45.2654 95.9413 42.6595 91.2538 42.6595ZM87.6116 53.1796C87.4215 52.4397 87.2948 51.6032 87.2948 50.7024C87.2948 47.1314 89.1952 44.6863 91.0955 44.6863C94.136 44.6863 94.2627 51.2493 87.6116 53.1796Z" fill="#5357FF"/>
<path d="M109.279 41.3271C109.279 42.542 109.489 43.4337 109.911 44.002C110.342 44.5703 110.905 44.8544 111.601 44.8544C112.581 44.8544 113.453 44.7075 114.217 44.4135L114.261 44.5164C113.477 44.8201 112.591 44.972 111.601 44.972C110.621 44.972 109.823 44.6781 109.205 44.0902C108.588 43.5023 108.279 42.5959 108.279 41.3712C108.279 40.1464 108.603 39.1959 109.249 38.5199C109.896 37.8438 110.719 37.5057 111.718 37.5057C112.522 37.5057 113.198 37.7458 113.747 38.2259C114.295 38.706 114.57 39.4164 114.57 40.357C114.57 40.406 114.57 40.455 114.57 40.504H109.323C109.293 40.7686 109.279 41.0429 109.279 41.3271ZM113.57 40.3864C113.561 39.4458 113.379 38.7501 113.027 38.2994C112.674 37.8487 112.218 37.6233 111.66 37.6233C111.101 37.6233 110.601 37.8683 110.161 38.3582C109.729 38.8481 109.455 39.5242 109.338 40.3864H113.57Z" fill="black"/>
<path d="M106.25 38.1965V37.8879C105.809 38.0642 105.407 38.4219 105.044 38.9608C104.682 39.4899 104.491 39.9896 104.471 40.4599V44.9132H103.442V37.5645H104.471V39.9014C104.628 39.3331 104.927 38.7991 105.368 38.2994C105.809 37.7899 106.308 37.5253 106.867 37.5057H106.926C107.122 37.5057 107.283 37.5743 107.411 37.7115C107.548 37.8389 107.616 38.0006 107.616 38.1965C107.616 38.3925 107.548 38.5542 107.411 38.6815C107.283 38.8089 107.122 38.8726 106.926 38.8726C106.73 38.8726 106.568 38.8089 106.441 38.6815C106.313 38.5542 106.25 38.3925 106.25 38.1965Z" fill="black"/>
<path fill-rule="evenodd" clip-rule="evenodd" d="M109.315 40.573C109.29 40.8162 109.278 41.0675 109.278 41.327C109.278 42.542 109.488 43.4337 109.91 44.002C110.164 44.3373 110.465 44.5737 110.811 44.7112C111.052 44.8067 111.315 44.8544 111.6 44.8544C112.58 44.8544 113.452 44.7074 114.216 44.4135L114.26 44.5164C114.259 44.5169 114.258 44.5174 114.256 44.5179C114.2 44.5398 114.143 44.5608 114.085 44.5811C113.345 44.8417 112.517 44.972 111.6 44.972C111.303 44.972 111.022 44.9449 110.758 44.8908C110.152 44.7665 109.634 44.4996 109.204 44.0901C108.587 43.5022 108.278 42.5959 108.278 41.3711C108.278 40.1463 108.602 39.1959 109.248 38.5198C109.706 38.0415 110.252 37.7324 110.886 37.5925C111.13 37.5385 111.388 37.5097 111.659 37.5061C111.678 37.5058 111.698 37.5057 111.718 37.5057C111.94 37.5057 112.153 37.5242 112.357 37.5611C112.886 37.6573 113.349 37.8789 113.746 38.2259C114.287 38.6992 114.561 39.3964 114.569 40.3174C114.569 40.3305 114.569 40.3437 114.569 40.357V40.504H109.322C109.319 40.5269 109.317 40.5499 109.315 40.573ZM109.491 40.6906C109.473 40.8964 109.464 41.1085 109.464 41.327C109.464 42.5271 109.674 43.3696 110.059 43.89C110.456 44.4126 110.965 44.6678 111.6 44.6678C112.561 44.6678 113.41 44.5236 114.149 44.2393L114.317 44.1748L114.508 44.6205L114.328 44.6904C113.519 45.0038 112.609 45.1586 111.6 45.1586C110.58 45.1586 109.733 44.8512 109.076 44.2253C108.408 43.5891 108.092 42.6244 108.092 41.3711C108.092 40.1136 108.424 39.1113 109.114 38.3908C109.798 37.6752 110.671 37.3191 111.718 37.3191C112.561 37.3191 113.282 37.5724 113.869 38.0854C114.469 38.6107 114.756 39.3792 114.756 40.357V40.6906H109.491ZM113.565 40.1998C113.534 39.3532 113.355 38.7197 113.026 38.2994C112.82 38.0371 112.58 37.8511 112.305 37.7415C112.125 37.6693 111.929 37.6302 111.718 37.6241C111.698 37.6236 111.679 37.6233 111.659 37.6233C111.408 37.6233 111.17 37.6725 110.943 37.7709C110.664 37.8921 110.403 38.0878 110.16 38.3581C109.76 38.8122 109.495 39.426 109.365 40.1998C109.358 40.2386 109.352 40.2778 109.346 40.3174C109.343 40.3402 109.34 40.3632 109.337 40.3864H113.569C113.569 40.3632 113.569 40.3402 113.568 40.3174C113.568 40.2777 113.567 40.2385 113.565 40.1998ZM113.378 40.1998H109.554C109.682 39.4659 109.934 38.8975 110.299 38.4822C110.711 38.0244 111.163 37.8099 111.659 37.8099C112.158 37.8099 112.56 38.0075 112.879 38.4144C113.173 38.7898 113.348 39.3758 113.378 40.1998Z" fill="black"/>
<path fill-rule="evenodd" clip-rule="evenodd" d="M105.598 38.0599C105.98 37.7067 106.403 37.522 106.866 37.5057H106.925C107.121 37.5057 107.282 37.5743 107.41 37.7115C107.547 37.8388 107.616 38.0005 107.616 38.1965C107.616 38.3924 107.547 38.5541 107.41 38.6815C107.282 38.8089 107.121 38.8726 106.925 38.8726C106.729 38.8726 106.567 38.8089 106.44 38.6815C106.312 38.5541 106.249 38.3924 106.249 38.1965V37.8878C106.186 37.913 106.123 37.9419 106.062 37.9745C105.945 38.0368 105.831 38.1125 105.719 38.2017C105.642 38.2637 105.566 38.3321 105.491 38.4071C105.491 38.4075 105.491 38.4078 105.49 38.4082C105.335 38.5643 105.186 38.7484 105.044 38.9607C104.88 39.2 104.751 39.4332 104.657 39.6604C104.623 39.7415 104.594 39.8218 104.57 39.9014C104.567 39.9098 104.565 39.9183 104.562 39.9267C104.561 39.9307 104.56 39.9347 104.559 39.9386C104.507 40.1162 104.477 40.29 104.47 40.4599V44.9132H103.441V37.5645H104.47V39.9014C104.519 39.7253 104.581 39.5526 104.657 39.3831C104.733 39.2128 104.823 39.0459 104.927 38.8822C104.927 38.8819 104.927 38.8816 104.927 38.8812C105.054 38.6824 105.2 38.4884 105.367 38.2994C105.442 38.2124 105.519 38.1326 105.598 38.0599ZM105.226 38.1766C105.694 37.637 106.239 37.341 106.859 37.3192L106.863 37.3191H106.925C107.168 37.3191 107.378 37.4056 107.542 37.5794C107.716 37.7433 107.802 37.9537 107.802 38.1965C107.802 38.4404 107.715 38.6517 107.539 38.8159C107.374 38.9799 107.164 39.0592 106.925 39.0592C106.684 39.0592 106.473 38.9791 106.308 38.8134C106.142 38.6478 106.062 38.4371 106.062 38.1965V38.189C105.76 38.371 105.471 38.6592 105.198 39.0649L105.197 39.0662C104.849 39.5751 104.675 40.04 104.657 40.4639V45.0998H103.255V37.3779H104.657V38.9698C104.812 38.6956 105.002 38.4312 105.226 38.1766Z" fill="black"/>
<path fill-rule="evenodd" clip-rule="evenodd" d="M109.019 31.7707C103.911 31.7707 99.7707 35.9112 99.7707 41.0189C99.7707 46.1265 103.911 50.267 109.019 50.267C112.403 50.267 115.363 48.4494 116.976 45.7351L117.638 46.1288C115.893 49.067 112.686 51.0377 109.019 51.0377C103.486 51.0377 99 46.5521 99 41.0189C99 35.4856 103.486 31 109.019 31C114.252 31 118.548 35.0119 118.999 40.1277L120.832 38.2941C120.983 38.1436 121.227 38.1436 121.377 38.2941C121.528 38.4446 121.528 38.6886 121.377 38.839L118.925 41.2913C118.774 41.4418 118.53 41.4418 118.38 41.2913L115.928 38.839C115.777 38.6886 115.777 38.4446 115.928 38.2941C116.078 38.1436 116.322 38.1436 116.473 38.2941L118.216 40.0371C117.725 35.391 113.795 31.7707 109.019 31.7707Z" fill="#191919"/>
</svg>
