<svg width="80" height="80" viewBox="0 0 80 80" fill="none" xmlns="http://www.w3.org/2000/svg">
<rect width="80" height="80" fill="white"/>
<path d="M40.2759 66C53.3793 66 60 58.4299 60 47.1102C60 35.5782 53.1724 27.8667 43.1034 27.8667C39.1034 27.8667 36.2759 29.1401 34.2759 31.1918V14H31.4483L20 16.1932V17.6082L20.6207 18.1742C22 19.1646 22.8966 21.0041 22.8966 22.702V65.2925H25.7241L27.5862 64.5143C28.2069 64.2313 28.9655 64.0898 29.7241 64.0898C30.6897 64.0898 31.6552 64.302 32.6207 64.7265C35.1034 65.717 37.7931 66 40.2759 66ZM34.2759 53.3361V45.4122C34.6207 37.4177 37.5172 32.3238 41.6552 32.3238C46.069 32.3238 48.6207 38.1959 48.6207 46.7565C48.6207 55.883 45.7241 61.6136 41.1724 61.6136C36.8966 61.6136 34.4828 56.449 34.2759 53.3361Z" fill="#5357FF"/>
</svg>
