<svg width="128" height="96" viewBox="0 0 128 96" fill="none" xmlns="http://www.w3.org/2000/svg">
<rect width="128" height="96" fill="white"/>
<path d="M39.3116 60C45.3293 60 48.3698 56.5576 48.3698 51.4102C48.3698 46.1662 45.2343 42.6595 40.6102 42.6595C38.7732 42.6595 37.4746 43.2386 36.5561 44.1716V36.3539H35.2576L30 37.3512V37.9946L30.285 38.252C30.9185 38.7024 31.3302 39.5389 31.3302 40.311V59.6783H32.6288L33.4839 59.3244C33.769 59.1957 34.1174 59.1314 34.4658 59.1314C34.9092 59.1314 35.3526 59.2279 35.796 59.4209C36.9362 59.8713 38.1714 60 39.3116 60ZM36.5561 54.2413V50.6381C36.7145 47.0027 38.0447 44.6863 39.945 44.6863C41.9721 44.6863 43.1439 47.3566 43.1439 51.2493C43.1439 55.3995 41.8137 58.0054 39.7233 58.0054C37.7597 58.0054 36.6511 55.6568 36.5561 54.2413Z" fill="#5357FF"/>
<path d="M49.6436 39.0885C49.6436 40.7614 51.0055 42.1448 52.6525 42.1448C54.3311 42.1448 55.693 40.7614 55.693 39.0885C55.693 37.4155 54.3311 36 52.6525 36C51.0055 36 49.6436 37.4155 49.6436 39.0885ZM56.2948 58.7775C55.7247 58.2949 55.2813 57.4906 55.2813 56.7185V43.0134H53.9827L48.7251 44.0107V44.6863L49.0102 44.9115C49.6436 45.3619 50.0554 46.1984 50.0554 46.9705V56.7185C50.0554 57.4906 49.6436 58.2949 49.0102 58.7775L48.7251 59.0027V59.6783H56.6115V59.0027L56.2948 58.7775Z" fill="#5357FF"/>
<path d="M64.5501 58.7775C63.98 58.2949 63.5366 57.4906 63.5366 56.7185V36.3539H62.238L56.9804 37.3512V37.9946L57.2655 38.252C57.8989 38.7024 58.3107 39.5389 58.3107 40.311V56.7185C58.3107 57.4906 57.8989 58.2949 57.2655 58.7775L56.9804 59.0027V59.6783H64.8668V59.0027L64.5501 58.7775Z" fill="#5357FF"/>
<path d="M72.8083 58.7775C72.2382 58.2949 71.7948 57.4906 71.7948 56.7185V36.3539H70.4962L65.2387 37.3512V37.9946L65.5237 38.252C66.1572 38.7024 66.5689 39.5389 66.5689 40.311V56.7185C66.5689 57.4906 66.1572 58.2949 65.5237 58.7775L65.2387 59.0027V59.6783H73.125V59.0027L72.8083 58.7775Z" fill="#5357FF"/>
<path d="M74.5421 39.0885C74.5421 40.7614 75.904 42.1448 77.551 42.1448C79.2296 42.1448 80.5915 40.7614 80.5915 39.0885C80.5915 37.4155 79.2296 36 77.551 36C75.904 36 74.5421 37.4155 74.5421 39.0885ZM81.1933 58.7775C80.6232 58.2949 80.1797 57.4906 80.1797 56.7185V43.0134H78.8812L73.6236 44.0107V44.6863L73.9087 44.9115C74.5421 45.3619 74.9538 46.1984 74.9538 46.9705V56.7185C74.9538 57.4906 74.5421 58.2949 73.9087 58.7775L73.6236 59.0027V59.6783H81.51V59.0027L81.1933 58.7775Z" fill="#5357FF"/>
<path d="M91.2538 42.6595C85.7429 42.6595 82.0373 46.2627 82.0373 51.6032C82.0373 56.6863 85.4262 60 90.0503 60C94.2627 60 96.9548 57.2011 97.9683 53.0188H97.3032C96.9865 54.1448 95.1178 56.6863 92.0773 56.6863C90.272 56.6863 88.8784 55.7855 88.0866 54.2091C89.0051 54.4343 89.892 54.563 90.7471 54.563C94.9278 54.563 98 51.8284 98 48.193C98 45.2654 95.9413 42.6595 91.2538 42.6595ZM87.6116 53.1796C87.4215 52.4397 87.2948 51.6032 87.2948 50.7024C87.2948 47.1314 89.1952 44.6863 91.0955 44.6863C94.136 44.6863 94.2627 51.2493 87.6116 53.1796Z" fill="#5357FF"/>
</svg>
