<svg width="24" height="24" viewBox="0 0 24 24" fill="none" xmlns="http://www.w3.org/2000/svg">
<path d="M12.058 19.9999C9.83532 19.9999 7.94632 19.2223 6.39098 17.6669C4.83565 16.1116 4.05798 14.2226 4.05798 11.9999C4.05798 9.97459 4.71798 8.21792 6.03798 6.72992C7.35932 5.24326 8.99398 4.36559 10.942 4.09692C10.996 4.09692 11.049 4.09892 11.101 4.10292C11.153 4.10692 11.204 4.11259 11.254 4.11992C10.9166 4.59059 10.6497 5.11392 10.453 5.68992C10.2563 6.26592 10.158 6.86926 10.158 7.49992C10.158 9.27792 10.78 10.7889 12.024 12.0329C13.268 13.2769 14.7793 13.8993 16.558 13.8999C17.1927 13.8999 17.797 13.8016 18.371 13.6049C18.9456 13.4083 19.4617 13.1413 19.919 12.8039C19.927 12.8539 19.933 12.9049 19.937 12.9569C19.941 13.0089 19.9426 13.0616 19.942 13.1149C19.686 15.0636 18.8143 16.6983 17.327 18.0189C15.8396 19.3396 14.084 19.9999 12.058 19.9999ZM12.057 18.9999C13.5237 18.9999 14.8403 18.5956 16.007 17.7869C17.1736 16.9783 18.0236 15.9243 18.557 14.6249C18.2236 14.7083 17.8903 14.7749 17.557 14.8249C17.2236 14.8749 16.8903 14.8999 16.557 14.8999C14.5076 14.8999 12.762 14.1793 11.32 12.7379C9.87798 11.2966 9.15732 9.55059 9.15798 7.49992C9.15798 7.16659 9.18298 6.83326 9.23298 6.49992C9.28298 6.16659 9.34965 5.83326 9.43298 5.49992C8.13298 6.03326 7.07865 6.88326 6.26998 8.04992C5.46132 9.21659 5.05732 10.5333 5.05798 11.9999C5.05798 13.9333 5.74132 15.5833 7.10798 16.9499C8.47465 18.3166 10.1237 18.9999 12.057 18.9999Z" fill="#191919"/>
</svg>
