<svg width="24" height="24" viewBox="0 0 24 24" fill="none" xmlns="http://www.w3.org/2000/svg">
<rect x="0.2" y="0.2" width="23.6" height="23.6" rx="3.8" stroke="#E1E5ED" stroke-width="0.4"/>
<path d="M12.5 14.9999V17.7499C12.5 19.2679 11.268 20.4999 9.75 20.4999C8.232 20.4999 7 19.2679 7 17.7499C7 16.2319 8.232 14.9999 9.75 14.9999M12.5 14.9999H9.75M12.5 14.9999V9.50012M9.75 14.9999C8.232 14.9999 7 13.7681 7 12.2501C7 10.7321 8.232 9.50012 9.75 9.50012M9.75 9.50012H12.5M9.75 9.50012C8.232 9.50012 7 8.26801 7 6.75C7 5.232 8.232 4 9.75 4H12.5M12.5 9.50012V4M12.5 9.50012L15.25 9.50001M12.5 4H15.25C16.768 4 18 5.232 18 6.75C18 8.26801 16.768 9.50001 15.25 9.50001M15.25 9.50001C13.732 9.50001 12.5 10.7321 12.5 12.2501C12.5 13.7681 13.732 15.0001 15.25 15.0001C16.768 15.0001 18 13.7681 18 12.2501C18 10.7321 16.768 9.50001 15.25 9.50001Z" stroke="#E1E5ED" stroke-width="0.89"/>
</svg>
