<svg width="24" height="24" viewBox="0 0 24 24" fill="none" xmlns="http://www.w3.org/2000/svg">
<rect x="0.2" y="0.2" width="23.6" height="23.6" rx="3.8" stroke="#4D4D4D" stroke-width="0.4"/>
<path d="M12.4999 14.9999V17.7499C12.4999 19.2679 11.2679 20.4999 9.74994 20.4999C8.23194 20.4999 6.99994 19.2679 6.99994 17.7499C6.99994 16.2319 8.23194 14.9999 9.74994 14.9999M12.4999 14.9999H9.74994M12.4999 14.9999V9.50012M9.74994 14.9999C8.23194 14.9999 6.99994 13.7681 6.99994 12.2501C6.99994 10.7321 8.23194 9.50012 9.74994 9.50012M9.74994 9.50012H12.4999M9.74994 9.50012C8.23194 9.50012 6.99994 8.26801 6.99994 6.75C6.99994 5.232 8.23194 4 9.74994 4H12.4999M12.4999 9.50012V4M12.4999 9.50012L15.2499 9.50001M12.4999 4H15.2499C16.7679 4 17.9999 5.232 17.9999 6.75C17.9999 8.26801 16.7679 9.50001 15.2499 9.50001M15.2499 9.50001C13.7319 9.50001 12.4999 10.7321 12.4999 12.2501C12.4999 13.7681 13.7319 15.0001 15.2499 15.0001C16.7679 15.0001 17.9999 13.7681 17.9999 12.2501C17.9999 10.7321 16.7679 9.50001 15.2499 9.50001Z" stroke="#4D4D4D" stroke-width="0.89"/>
</svg>
