<svg width="24" height="24" viewBox="0 0 24 24" fill="none" xmlns="http://www.w3.org/2000/svg">
<rect x="0.2" y="0.2" width="23.6" height="23.6" rx="3.8" stroke="#4D4D4D" stroke-width="0.4"/>
<path d="M19.9754 17.0775C19.8305 16.1741 19.2414 15.4156 17.4966 14.7079C16.8906 14.4294 16.2149 14.2299 16.0135 13.7706C15.942 13.5034 15.9326 13.3528 15.9778 13.1909C16.1076 12.6658 16.7344 12.5021 17.2313 12.6527C17.5512 12.7599 17.8542 13.0065 18.0368 13.3999C18.8913 12.8465 18.8894 12.8503 19.486 12.4701C19.2677 12.1313 19.151 11.9751 19.008 11.8302C18.4942 11.2561 17.794 10.9606 16.6741 10.9832C16.4803 11.0077 16.2846 11.034 16.0907 11.0585C15.5317 11.1997 14.999 11.4933 14.6866 11.8867C13.7493 12.9501 14.0166 14.8115 15.1571 15.5775C16.2808 16.4207 17.9314 16.6127 18.1422 17.4013C18.3474 18.3668 17.4327 18.6792 16.5236 18.5682C15.8535 18.4289 15.4809 18.0883 15.0781 17.469C14.3366 17.8982 14.3366 17.8982 13.5743 18.3367C13.755 18.732 13.9451 18.9108 14.2481 19.2533C15.6823 20.7082 19.2715 20.6367 19.9152 18.4346C19.9415 18.3593 20.1147 17.8549 19.9754 17.0775ZM12.5598 11.0999H10.7078C10.7078 12.6997 10.7003 14.2882 10.7003 15.888C10.7003 16.9063 10.753 17.8398 10.5874 18.1259C10.3163 18.6886 9.6143 18.619 9.29433 18.5098C8.96873 18.3498 8.8031 18.1221 8.61112 17.8003C8.55842 17.7081 8.5189 17.6365 8.5057 17.6309C8.00319 17.9377 7.50253 18.2463 7 18.5531C7.25034 19.067 7.61922 19.513 8.09163 19.8028C8.79743 20.2263 9.74603 20.3562 10.7379 20.1285C11.3835 19.9402 11.9406 19.5507 12.2323 18.9578C12.6539 18.1805 12.5636 17.2394 12.5598 16.1986C12.5692 14.5009 12.5598 12.8032 12.5598 11.0999Z" fill="#4D4D4D"/>
</svg>
