<svg width="24" height="24" viewBox="0 0 24 24" fill="none" xmlns="http://www.w3.org/2000/svg">
<path d="M12 15C12.8333 15 13.5417 14.7083 14.125 14.125C14.7083 13.5417 15 12.8333 15 12C15 11.1667 14.7083 10.4583 14.125 9.875C13.5417 9.29167 12.8333 9 12 9C11.1667 9 10.4583 9.29167 9.875 9.875C9.29167 10.4583 9 11.1667 9 12C9 12.8333 9.29167 13.5417 9.875 14.125C10.4583 14.7083 11.1667 15 12 15ZM12 16C10.886 16 9.94067 15.612 9.164 14.836C8.38733 14.06 7.99933 13.1147 8 12C8.00067 10.8853 8.38867 9.94 9.164 9.164C9.93933 8.388 10.8847 8 12 8C13.1153 8 14.0607 8.388 14.836 9.164C15.6113 9.94 15.9993 10.8853 16 12C16.0007 13.1147 15.6127 14.06 14.836 14.836C14.0593 15.612 13.114 16 12 16ZM5 12.5H1.5V11.5H5V12.5ZM22.5 12.5H19V11.5H22.5V12.5ZM11.5 5V1.5H12.5V5H11.5ZM11.5 22.5V19H12.5V22.5H11.5ZM6.746 7.404L4.586 5.306L5.281 4.562L7.392 6.696L6.746 7.404ZM18.72 19.438L16.603 17.298L17.255 16.596L19.415 18.694L18.72 19.438ZM16.596 6.746L18.694 4.586L19.438 5.281L17.304 7.392L16.596 6.746ZM4.562 18.72L6.702 16.603L7.365 17.255L5.287 19.434L4.562 18.72Z" fill="white"/>
</svg>
