<svg width="24" height="24" viewBox="0 0 24 24" fill="none" xmlns="http://www.w3.org/2000/svg">
<path d="M14.7801 3.65299C15.1456 3.28746 15.5796 2.9975 16.0572 2.79967C16.5348 2.60185 17.0467 2.50003 17.5636 2.50003C18.0806 2.50003 18.5924 2.60185 19.07 2.79967C19.5476 2.9975 19.9816 3.28746 20.3471 3.65299C20.7126 4.01853 21.0026 4.45248 21.2004 4.93007C21.3983 5.40767 21.5001 5.91955 21.5001 6.43649C21.5001 6.95344 21.3983 7.46532 21.2004 7.94291C21.0026 8.42051 20.7126 8.85446 20.3471 9.21999L16.7201 12.847C16.3265 13.2407 15.8539 13.5464 15.3334 13.744C14.8129 13.9416 14.2564 14.0265 13.7007 13.9931C13.145 13.9597 12.6027 13.8089 12.1096 13.5505C11.6165 13.292 11.1838 12.932 10.8401 12.494C10.7171 12.3375 10.5369 12.2363 10.3392 12.2127C10.1415 12.1891 9.94259 12.2449 9.78611 12.368C9.62963 12.4911 9.52845 12.6712 9.50482 12.8689C9.48119 13.0666 9.53705 13.2655 9.66011 13.422C10.1349 14.0266 10.7325 14.5237 11.4135 14.8804C12.0945 15.237 12.8434 15.4452 13.6108 15.4911C14.3782 15.5371 15.1466 15.4197 15.8653 15.1468C16.584 14.8739 17.2366 14.4517 17.7801 13.908L21.4081 10.28C21.9129 9.77519 22.3133 9.17591 22.5865 8.51635C22.8597 7.8568 23.0003 7.14989 23.0003 6.43599C23.0003 5.7221 22.8597 5.01519 22.5865 4.35564C22.3133 3.69608 21.9129 3.09679 21.4081 2.59199C20.9033 2.08719 20.304 1.68676 19.6445 1.41356C18.9849 1.14037 18.278 0.999756 17.5641 0.999756C16.8502 0.999756 16.1433 1.14037 15.4838 1.41356C14.8242 1.68676 14.2249 2.08719 13.7201 2.59199L10.7201 5.59199C10.5834 5.73338 10.5077 5.9228 10.5094 6.11945C10.511 6.31609 10.5898 6.50424 10.7287 6.64336C10.8677 6.78249 11.0558 6.86145 11.2525 6.86325C11.4491 6.86505 11.6386 6.78955 11.7801 6.65299L14.7801 3.65299Z" fill="#E1E5ED"/>
<path d="M7.27999 11.153C7.6736 10.7593 8.14625 10.4536 8.66673 10.256C9.18721 10.0584 9.74368 9.97353 10.2994 10.0069C10.8551 10.0403 11.3974 10.1911 11.8905 10.4495C12.3836 10.708 12.8163 11.068 13.16 11.506C13.2209 11.5835 13.2965 11.6482 13.3825 11.6965C13.4684 11.7447 13.563 11.7756 13.6609 11.7873C13.7588 11.799 13.858 11.7913 13.9529 11.7647C14.0478 11.738 14.1365 11.6929 14.214 11.632C14.2915 11.5711 14.3562 11.4955 14.4045 11.4095C14.4527 11.3236 14.4836 11.229 14.4953 11.1311C14.507 11.0332 14.4993 10.934 14.4726 10.8391C14.446 10.7442 14.4009 10.6555 14.34 10.578C13.8652 9.97337 13.2676 9.4763 12.5866 9.11963C11.9056 8.76296 11.1567 8.55479 10.3893 8.50886C9.62191 8.46293 8.85351 8.58028 8.13482 8.85318C7.41612 9.12608 6.76349 9.54831 6.21999 10.092L2.59199 13.72C2.08719 14.2248 1.68676 14.8241 1.41356 15.4836C1.14037 16.1432 0.999756 16.8501 0.999756 17.564C0.999756 18.2779 1.14037 18.9848 1.41356 19.6444C1.68676 20.3039 2.08719 20.9032 2.59199 21.408C3.09679 21.9128 3.69608 22.3132 4.35564 22.5864C5.01519 22.8596 5.7221 23.0002 6.43599 23.0002C7.14989 23.0002 7.8568 22.8596 8.51635 22.5864C9.17591 22.3132 9.77519 21.9128 10.28 21.408L13.28 18.408C13.3537 18.3393 13.4128 18.2565 13.4538 18.1645C13.4948 18.0725 13.5168 17.9732 13.5186 17.8725C13.5204 17.7718 13.5018 17.6718 13.4641 17.5784C13.4264 17.485 13.3702 17.4002 13.299 17.329C13.2278 17.2577 13.143 17.2016 13.0496 17.1639C12.9562 17.1262 12.8562 17.1076 12.7555 17.1094C12.6548 17.1112 12.5555 17.1332 12.4635 17.1742C12.3715 17.2152 12.2887 17.2743 12.22 17.348L9.21999 20.348C8.85439 20.7135 8.42038 21.0035 7.94272 21.2013C7.46507 21.3991 6.95313 21.5009 6.43614 21.5008C5.39203 21.5007 4.39072 21.0859 3.65249 20.3475C3.28696 19.9819 2.99701 19.5479 2.79921 19.0702C2.60141 18.5926 2.49963 18.0806 2.49968 17.5637C2.49977 16.5195 2.91463 15.5182 3.65299 14.78L7.27999 11.153Z" fill="#E1E5ED"/>
</svg>
