<svg width="24" height="24" viewBox="0 0 24 24" fill="none" xmlns="http://www.w3.org/2000/svg">
<rect x="0.2" y="0.2" width="23.6" height="23.6" rx="3.8" stroke="#4D4D4D" stroke-width="0.4"/>
<g clip-path="url(#clip0_124_2267)">
<path d="M11.4111 3.01406C11.3724 3.01757 11.2494 3.02987 11.1387 3.03866C8.58482 3.26891 6.19267 4.6469 4.67758 6.76486C3.83392 7.94248 3.29432 9.27829 3.09043 10.6932C3.01837 11.1871 3.00958 11.333 3.00958 12.0026C3.00958 12.6723 3.01837 12.8182 3.09043 13.3121C3.57906 16.6885 5.98175 19.5253 9.24042 20.5764C9.82396 20.7645 10.4391 20.8928 11.1387 20.9701C11.4111 21 12.5887 21 12.8612 20.9701C14.0687 20.8365 15.0916 20.5377 16.1005 20.0227C16.2552 19.9437 16.285 19.9226 16.264 19.905C16.2499 19.8944 15.5908 19.0103 14.7998 17.9417L13.3621 15.9995L11.5605 13.3332C10.5692 11.8673 9.75365 10.6686 9.74662 10.6686C9.73959 10.6668 9.73256 11.8515 9.72904 13.298C9.72377 15.8308 9.72201 15.9327 9.69038 15.9925C9.64468 16.0786 9.60952 16.1138 9.5357 16.1524C9.47946 16.1805 9.43024 16.1858 9.16484 16.1858H8.86077L8.77992 16.1348C8.72719 16.1014 8.68852 16.0575 8.66216 16.0065L8.62524 15.9274L8.62876 12.4034L8.63403 8.87755L8.68852 8.809C8.71664 8.77209 8.7764 8.72463 8.81859 8.70178C8.89065 8.66663 8.91877 8.66311 9.22284 8.66311C9.5814 8.66311 9.64116 8.67717 9.73432 8.77912C9.76068 8.80724 10.7362 10.2766 11.9032 12.0466C13.0703 13.8165 14.6663 16.2333 15.4502 17.4197L16.8739 19.5763L16.9459 19.5288C17.5839 19.114 18.2589 18.5235 18.7932 17.9083C19.9304 16.6024 20.6633 15.01 20.9094 13.3121C20.9815 12.8182 20.9902 12.6723 20.9902 12.0026C20.9902 11.333 20.9815 11.1871 20.9094 10.6932C20.4208 7.31676 18.0181 4.47993 14.7594 3.42886C14.1847 3.24255 13.573 3.11424 12.8875 3.03691C12.7188 3.01933 11.557 2.99999 11.4111 3.01406ZM15.0916 8.4522C15.176 8.49438 15.2445 8.57523 15.2691 8.6596C15.2832 8.7053 15.2867 9.68254 15.2832 11.8849L15.2779 15.0451L14.7207 14.1909L14.1618 13.3367V11.0394C14.1618 9.55424 14.1688 8.71936 14.1794 8.67893C14.2075 8.5805 14.269 8.50317 14.3534 8.45747C14.4255 8.42056 14.4518 8.41704 14.7278 8.41704C14.9879 8.41704 15.0336 8.42056 15.0916 8.4522Z" fill="#4D4D4D"/>
<path d="M16.786 19.615C16.7245 19.6536 16.7051 19.68 16.7596 19.6501C16.7983 19.6273 16.8616 19.5798 16.851 19.5781C16.8458 19.5781 16.8159 19.5956 16.786 19.615ZM16.6647 19.6941C16.6331 19.7187 16.6331 19.7204 16.6718 19.7011C16.6928 19.6906 16.7104 19.6782 16.7104 19.6747C16.7104 19.6607 16.7016 19.6642 16.6647 19.6941ZM16.5768 19.7468C16.5452 19.7714 16.5452 19.7732 16.5839 19.7538C16.605 19.7433 16.6225 19.731 16.6225 19.7275C16.6225 19.7134 16.6138 19.7169 16.5768 19.7468ZM16.489 19.7995C16.4573 19.8241 16.4573 19.8259 16.496 19.8066C16.5171 19.796 16.5347 19.7837 16.5347 19.7802C16.5347 19.7661 16.5259 19.7696 16.489 19.7995ZM16.3554 19.8698C16.2886 19.905 16.2921 19.919 16.3589 19.8857C16.3888 19.8698 16.4116 19.854 16.4116 19.8505C16.4116 19.8382 16.4099 19.84 16.3554 19.8698Z" fill="#4D4D4D"/>
</g>
<defs>
<clipPath id="clip0_124_2267">
<rect width="18" height="18" fill="white" transform="translate(2.99994 3)"/>
</clipPath>
</defs>
</svg>
