<svg width="24" height="24" viewBox="0 0 24 24" fill="none" xmlns="http://www.w3.org/2000/svg">
<rect x="0.2" y="0.2" width="23.6" height="23.6" rx="3.8" stroke="#4D4D4D" stroke-width="0.4"/>
<path d="M6 11.9345V12.7413H8.574V20.0673H10.4006V12.7413H12.9746V11.9493C12.9746 11.5038 12.9746 11.1425 12.9548 11.1326C12.9548 11.1177 11.3856 11.1128 9.47985 11.1128L6.01485 11.1276V11.9394L6 11.9345ZM17.5682 11.1078C18.0731 11.2266 18.4592 11.4543 18.8057 11.8157C18.9888 12.0137 19.2611 12.3602 19.2809 12.4493C19.2809 12.479 18.4245 13.0581 17.9048 13.3799C17.885 13.3947 17.8058 13.3106 17.7266 13.1819C17.4692 12.8156 17.2068 12.6572 16.7959 12.6275C16.202 12.5879 15.806 12.8997 15.806 13.4195C15.806 13.5779 15.8357 13.667 15.8951 13.7957C16.0287 14.0679 16.2762 14.2313 17.0435 14.5679C18.4592 15.1767 19.0729 15.5777 19.4442 16.1519C19.8649 16.7954 19.959 17.8052 19.6769 18.5625C19.3601 19.3892 18.5879 19.9485 17.484 20.1317C17.1375 20.1911 16.3455 20.1812 15.9743 20.1168C15.1823 19.9683 14.4249 19.5723 13.9596 19.0625C13.7765 18.8645 13.425 18.3348 13.4448 18.3002L13.6329 18.1814L14.3754 17.7507L14.9348 17.424L15.0634 17.5973C15.2268 17.8547 15.5931 18.2012 15.806 18.32C16.4495 18.6516 17.3108 18.6071 17.7365 18.221C17.9196 18.0527 17.9988 17.8745 17.9988 17.627C17.9988 17.3993 17.9642 17.2953 17.8503 17.1221C17.6919 16.9043 17.3751 16.7261 16.4841 16.3301C15.4595 15.8945 15.0239 15.6173 14.618 15.1916C14.3853 14.9342 14.1725 14.5332 14.0735 14.2016C13.9992 13.9145 13.9745 13.2116 14.0438 12.9294C14.2566 11.9394 15.0041 11.2464 16.0733 11.0484C16.4198 10.9791 17.2365 11.0088 17.5781 11.0979L17.5682 11.1078Z" fill="#4D4D4D"/>
</svg>
