<svg width="80" height="80" viewBox="0 0 80 80" fill="none" xmlns="http://www.w3.org/2000/svg">
<rect width="80" height="80" fill="white"/>
<path d="M28.9183 27C32.6412 27 35.5972 28.3172 37.7864 30.9517C39.9756 33.5738 40.7548 36.7402 40.124 40.4507C39.5056 44.1736 37.6627 47.3523 34.5954 49.9868C31.528 52.6089 28.1329 53.92 24.41 53.92C20.6995 53.92 17.7497 52.6089 15.5605 49.9868C13.3713 47.3523 12.5859 44.1736 13.2043 40.4507C13.8351 36.7402 15.6842 33.5738 18.7515 30.9517C21.8189 28.3172 25.2078 27 28.9183 27ZM28.6586 28.5028C25.3686 28.5028 22.3569 29.6716 19.6235 32.0092C16.9025 34.3469 15.2636 37.1607 14.7071 40.4507C14.1629 43.7531 14.8617 46.5731 16.8035 48.9108C18.7453 51.2484 21.3612 52.4172 24.6512 52.4172C27.9536 52.4172 30.9714 51.2484 33.7048 48.9108C36.4382 46.5731 38.077 43.7531 38.6212 40.4507C39.1778 37.1607 38.479 34.3469 36.5248 32.0092C34.583 29.6716 31.9609 28.5028 28.6586 28.5028Z" fill="black"/>
<path d="M48.3965 27.3711L61.7357 51.805L65.8358 27.3711H67.32L62.9231 53.6046H60.6411L47.5987 29.7458L43.6099 53.6046H42.1257L46.5227 27.3711H48.3965Z" fill="black"/>
</svg>
