<svg width="128" height="96" viewBox="0 0 128 96" fill="none" xmlns="http://www.w3.org/2000/svg">
<rect width="128" height="96" fill="white"/>
<path d="M27.1314 38.2211L24.354 54.7908H23.4165L26.1939 38.2211H27.1314Z" fill="#191919"/>
<path d="M30.3007 39.9319C30.1523 39.9007 30.0312 39.8226 29.9374 39.6976C29.7734 39.5179 29.7148 39.2952 29.7617 39.0296C29.8085 38.7718 29.9374 38.557 30.1484 38.3851C30.3593 38.2054 30.5937 38.1156 30.8515 38.1156C31.1015 38.1156 31.3047 38.2054 31.4609 38.3851C31.6172 38.557 31.6718 38.7718 31.625 39.0296C31.6015 39.1781 31.5547 39.3148 31.4843 39.4398L30.1249 41.4905H29.457L30.3007 39.9319Z" fill="#191919"/>
<path d="M48.482 38.2211L45.7046 54.7908H44.7671L47.3687 39.2288L39.5522 47.6309L34.5365 39.2288L31.9349 54.7908H30.9974L33.7747 38.2211H35.1341L39.8217 46.0724L47.1226 38.2211H48.482Z" fill="#191919"/>
<path d="M55.6175 55.1072C55.4691 55.9509 55.0628 56.6462 54.3988 57.1931C53.7425 57.7399 52.9964 58.0134 52.1605 58.0134L52.3011 57.1579C52.8714 57.1579 53.3909 56.9626 53.8597 56.572C54.305 56.1892 54.5824 55.6619 54.6917 54.99L57.5043 38.2211H58.4418L55.6175 55.1072Z" fill="#191919"/>
<path d="M69.7089 38.2211L69.5448 39.1585H62.1971L61.0486 46.0372H68.3964L68.244 46.9747H60.8963L59.7361 53.8533H67.0839L66.9315 54.7908H58.6462L61.4236 38.2211H69.7089Z" fill="#191919"/>
<path d="M80.6245 37.9867C82.9761 37.9867 84.8433 38.8187 86.2261 40.4827C87.6089 42.1389 88.1011 44.1388 87.7027 46.4825C87.3121 48.834 86.148 50.8417 84.2104 52.5057C82.2729 54.1619 80.1284 54.99 77.7768 54.99C75.433 54.99 73.5697 54.1619 72.1868 52.5057C70.804 50.8417 70.3079 48.834 70.6985 46.4825C71.097 44.1388 72.2649 42.1389 74.2025 40.4827C76.14 38.8187 78.2807 37.9867 80.6245 37.9867ZM80.4604 38.9359C78.3822 38.9359 76.4799 39.6741 74.7533 41.1506C73.0345 42.6272 71.9993 44.4044 71.6477 46.4825C71.304 48.5684 71.7454 50.3496 72.972 51.8261C74.1986 53.3026 75.8509 54.0408 77.9291 54.0408C80.0151 54.0408 81.9213 53.3026 83.6479 51.8261C85.3745 50.3496 86.4097 48.5684 86.7535 46.4825C87.105 44.4044 86.6636 42.6272 85.4292 41.1506C84.2026 39.6741 82.5464 38.9359 80.4604 38.9359Z" fill="#191919"/>
<path d="M92.6299 38.2211L101.056 53.6541L103.646 38.2211H104.583L101.806 54.7908H100.364L92.1259 39.721L89.6064 54.7908H88.6689L91.4462 38.2211H92.6299Z" fill="#191919"/>
</svg>
