<svg width="384" height="288" viewBox="0 0 384 288" fill="none" xmlns="http://www.w3.org/2000/svg">
<rect width="384" height="288" fill="white"/>
<path d="M81.3947 114.663L73.0625 164.372H70.25L78.5822 114.663H81.3947Z" fill="#191919"/>
<path d="M90.9027 119.796C90.4574 119.702 90.0941 119.468 89.8128 119.093C89.3206 118.554 89.1448 117.886 89.2855 117.089C89.4261 116.315 89.8128 115.671 90.4456 115.155C91.0785 114.616 91.7816 114.347 92.555 114.347C93.3051 114.347 93.9144 114.616 94.3832 115.155C94.852 115.671 95.016 116.315 94.8754 117.089C94.8051 117.534 94.6645 117.944 94.4535 118.319L90.3753 124.471H88.3714L90.9027 119.796Z" fill="#191919"/>
<path d="M145.447 114.663L137.114 164.372H134.302L142.107 117.686L118.657 142.893L103.61 117.686L95.8051 164.372H92.9926L101.325 114.663H105.403L119.466 138.217L141.368 114.663H145.447Z" fill="#191919"/>
<path d="M166.853 165.322C166.408 167.853 165.189 169.939 163.197 171.579C161.228 173.22 158.99 174.04 156.482 174.04L156.904 171.474C158.615 171.474 160.173 170.888 161.58 169.716C162.916 168.567 163.748 166.986 164.076 164.97L172.513 114.663H175.326L166.853 165.322Z" fill="#191919"/>
<path d="M209.127 114.663L208.635 117.475H186.592L183.146 138.111H205.19L204.733 140.924H182.689L179.209 161.56H201.252L200.795 164.372H175.939L184.271 114.663H209.127Z" fill="#191919"/>
<path d="M241.874 113.96C248.929 113.96 254.53 116.456 258.679 121.448C262.827 126.417 264.304 132.416 263.109 139.447C261.937 146.502 258.444 152.525 252.632 157.517C246.819 162.486 240.386 164.97 233.331 164.97C226.299 164.97 220.709 162.486 216.561 157.517C212.412 152.525 210.924 146.502 212.096 139.447C213.291 132.416 216.795 126.417 222.608 121.448C228.421 116.456 234.842 113.96 241.874 113.96ZM241.382 116.808C235.147 116.808 229.44 119.022 224.26 123.452C219.104 127.881 215.998 133.213 214.944 139.447C213.912 145.705 215.237 151.049 218.916 155.478C222.596 159.908 227.553 162.122 233.788 162.122C240.046 162.122 245.765 159.908 250.944 155.478C256.124 151.049 259.23 145.705 260.261 139.447C261.316 133.213 259.991 127.881 256.288 123.452C252.608 119.022 247.64 116.808 241.382 116.808Z" fill="#191919"/>
<path d="M277.89 114.663L303.168 160.962L310.937 114.663H313.75L305.418 164.372H301.094L276.378 119.163L268.82 164.372H266.007L274.339 114.663H277.89Z" fill="#191919"/>
</svg>
