<svg width="128" height="96" viewBox="0 0 128 96" fill="none" xmlns="http://www.w3.org/2000/svg">
<rect width="128" height="96" fill="white"/>
<path d="M23.25 44.3667C23.1094 43.0188 22.043 42.2336 20.3203 42.2336C18.5391 42.2336 17.543 43.054 17.5312 44.1792C17.5195 45.4098 18.7851 45.9607 20.25 46.2888L21.7734 46.6639C24.6797 47.3319 26.8476 48.8087 26.8593 51.6333C26.8476 54.7392 24.4336 56.7317 20.2969 56.72C16.1953 56.7317 13.582 54.833 13.4766 51.1879H16.8984C17.0156 52.8991 18.375 53.7664 20.25 53.7664C22.1015 53.7664 23.2969 52.8991 23.2969 51.6333C23.2969 50.473 22.2422 49.9339 20.3906 49.4768L18.5391 49.0314C15.6797 48.3282 13.9219 46.8983 13.9219 44.4136C13.9102 41.3311 16.6289 39.28 20.3437 39.28C24.1054 39.28 26.5781 41.3663 26.625 44.3667H23.25Z" fill="#D6ADFF"/>
<path d="M28.8333 42.4211V39.5144H42.7317V42.4211H37.5286V56.4856H34.0364V42.4211H28.8333Z" fill="#D6ADFF"/>
<path d="M60.0338 48C60.0338 53.5437 56.6002 56.72 52.1119 56.72C47.5885 56.72 44.1666 53.5203 44.1666 48C44.1666 42.4563 47.5885 39.28 52.1119 39.28C56.6002 39.28 60.0338 42.4563 60.0338 48ZM47.7525 48C47.7525 51.6216 49.4752 53.5906 52.1119 53.6024C54.7252 53.5906 56.4595 51.6216 56.4478 48C56.4595 44.3667 54.7252 42.4094 52.1119 42.3977C49.4752 42.4094 47.7525 44.3667 47.7525 48Z" fill="#D6ADFF"/>
<path d="M62.8983 56.4856V39.5144H69.5546C73.41 39.5144 75.6249 41.8937 75.6249 45.234C75.6249 48.6212 73.3749 50.9535 69.4608 50.9535H66.414V56.4856H62.8983ZM66.414 48.1172H68.8983C70.9843 48.1172 72.0038 46.9452 71.9921 45.234C72.0038 43.5463 70.9843 42.4094 68.8983 42.3977H66.414V48.1172Z" fill="#D6ADFF"/>
<path d="M84.0493 56.4856V39.5144H90.7993C94.5376 39.5144 96.436 41.3194 96.4243 43.8744C96.436 45.8669 95.1235 47.121 93.3774 47.5077V47.6718C95.2876 47.7656 97.0923 49.2892 97.104 51.7974C97.0923 54.4931 95.0767 56.4856 91.2446 56.4856H84.0493ZM87.565 53.5789H90.5415C92.5806 53.5906 93.4595 52.7468 93.4478 51.4692C93.4595 50.0394 92.3696 49.0314 90.6353 49.0314H87.565V53.5789ZM87.565 46.617H90.2837C91.7603 46.6287 92.8735 45.7966 92.8618 44.437C92.8735 43.2064 91.9595 42.3742 90.354 42.3742H87.565V46.617Z" fill="#D6ADFF"/>
<path d="M98.6326 39.5144H102.594L106.508 46.828H106.672L110.562 39.5144H114.523L108.336 50.4378V56.4856H104.82V50.4378L98.6326 39.5144Z" fill="#D6ADFF"/>
</svg>
