<svg width="80" height="80" viewBox="0 0 80 80" fill="none" xmlns="http://www.w3.org/2000/svg">
<rect width="80" height="80" fill="white"/>
<path d="M47.1914 31.7266C46.8633 28.582 44.375 26.75 40.3555 26.75C36.1992 26.75 33.875 28.6641 33.8477 31.2891C33.8203 34.1602 36.7734 35.4453 40.1914 36.2109L43.7461 37.0859C50.5273 38.6445 55.5859 42.0898 55.6133 48.6797C55.5859 55.9258 49.9531 60.5742 40.3008 60.5469C30.7305 60.5742 24.6328 56.1445 24.3867 47.6406H32.3711C32.6445 51.6328 35.8164 53.6562 40.1914 53.6562C44.5117 53.6562 47.3008 51.6328 47.3008 48.6797C47.3008 45.9727 44.8398 44.7148 40.5195 43.6484L36.1992 42.6094C29.5273 40.9688 25.4258 37.6328 25.4258 31.8359C25.3984 24.6445 31.7422 19.8594 40.4102 19.8594C49.1875 19.8594 54.957 24.7266 55.0664 31.7266H47.1914Z" fill="#D6ADFF"/>
</svg>
