<svg width="384" height="288" viewBox="0 0 384 288" fill="none" xmlns="http://www.w3.org/2000/svg">
<rect width="384" height="288" fill="white"/>
<path d="M69.7499 133.1C69.3281 129.056 66.1289 126.701 60.9609 126.701C55.6172 126.701 52.6289 129.162 52.5937 132.537C52.5586 136.229 56.3554 137.882 60.75 138.866L65.3203 139.992C74.039 141.996 80.5429 146.426 80.578 154.9C80.5429 164.218 73.3007 170.195 60.8906 170.16C48.5859 170.195 40.7461 164.499 40.4297 153.564H50.6953C51.0469 158.697 55.125 161.299 60.75 161.299C66.3046 161.299 69.8906 158.697 69.8906 154.9C69.8906 151.419 66.7265 149.801 61.1718 148.43L55.6172 147.094C47.039 144.984 41.7656 140.695 41.7656 133.241C41.7305 123.993 49.8867 117.84 61.0312 117.84C72.3163 117.84 79.7343 124.099 79.8749 133.1H69.7499Z" fill="#D6ADFF"/>
<path d="M86.4999 127.263V118.543H128.195V127.263H112.586V169.457H102.109V127.263H86.4999Z" fill="#D6ADFF"/>
<path d="M180.101 144C180.101 160.631 169.801 170.16 156.336 170.16C142.765 170.16 132.5 160.561 132.5 144C132.5 127.369 142.765 117.84 156.336 117.84C169.801 117.84 180.101 127.369 180.101 144ZM143.258 144C143.258 154.865 148.426 160.772 156.336 160.807C164.176 160.772 169.379 154.865 169.343 144C169.379 133.1 164.176 127.228 156.336 127.193C148.426 127.228 143.258 133.1 143.258 144Z" fill="#D6ADFF"/>
<path d="M188.695 169.457V118.543H208.664C220.23 118.543 226.875 125.681 226.875 135.702C226.875 145.863 220.125 152.861 208.382 152.861H199.242V169.457H188.695ZM199.242 144.351H206.695C212.953 144.351 216.011 140.835 215.976 135.702C216.011 130.639 212.953 127.228 206.695 127.193H199.242V144.351Z" fill="#D6ADFF"/>
<path d="M252.148 169.457V118.543H272.398C283.613 118.543 289.308 123.958 289.273 131.623C289.308 137.601 285.371 141.363 280.132 142.523V143.015C285.863 143.297 291.277 147.868 291.312 155.392C291.277 163.479 285.23 169.457 273.734 169.457H252.148ZM262.695 160.737H271.625C277.742 160.772 280.378 158.24 280.343 154.408C280.378 150.118 277.109 147.094 271.906 147.094H262.695V160.737ZM262.695 139.851H270.851C275.281 139.886 278.621 137.39 278.585 133.311C278.621 129.619 275.878 127.123 271.062 127.123H262.695V139.851Z" fill="#D6ADFF"/>
<path d="M295.898 118.543H307.781L319.523 140.484H320.015L331.687 118.543H343.57L325.007 151.313V169.457H314.46V151.313L295.898 118.543Z" fill="#D6ADFF"/>
</svg>
