<svg width="24" height="24" viewBox="0 0 24 24" fill="none" xmlns="http://www.w3.org/2000/svg">
<rect x="0.2" y="0.2" width="23.6" height="23.6" rx="3.8" stroke="#E1E5ED" stroke-width="0.4"/>
<g clip-path="url(#clip0_124_2433)">
<path d="M20.6605 11.198L12.8016 3.33948C12.3492 2.88688 11.6152 2.88688 11.1623 3.33948L9.53034 4.97143L11.6006 7.04165C12.0816 6.87908 12.6333 6.98814 13.0168 7.37162C13.4021 7.75757 13.5104 8.31395 13.3439 8.79658L15.339 10.7918C15.8217 10.6255 16.3786 10.7331 16.7642 11.1192C17.303 11.6578 17.303 12.5307 16.7642 13.0697C16.2252 13.6087 15.3523 13.6087 14.8131 13.0697C14.4078 12.664 14.3077 12.0688 14.5128 11.5695L12.6522 9.70888L12.652 14.6052C12.7869 14.6719 12.9101 14.76 13.0168 14.8661C13.5556 15.4047 13.5556 16.2777 13.0168 16.8171C12.4778 17.3558 11.6045 17.3558 11.0663 16.8171C10.5275 16.2777 10.5275 15.4048 11.0663 14.8662C11.1954 14.737 11.3489 14.6347 11.5178 14.5652V9.62317C11.3486 9.55412 11.1951 9.45175 11.0663 9.32216C10.6581 8.91449 10.5599 8.3155 10.7691 7.81424L8.72836 5.77328L3.33961 11.1617C2.8868 11.6147 2.8868 12.3488 3.33961 12.8015L11.1987 20.6602C11.6512 21.1129 12.3851 21.1129 12.8381 20.6602L20.6605 12.838C21.1131 12.3852 21.1132 11.6506 20.6605 11.198Z" fill="#E1E5ED"/>
</g>
<defs>
<clipPath id="clip0_124_2433">
<rect width="18" height="18" fill="white" transform="translate(3 3)"/>
</clipPath>
</defs>
</svg>
