<svg width="24" height="24" viewBox="0 0 24 24" fill="none" xmlns="http://www.w3.org/2000/svg">
<rect x="0.2" y="0.2" width="23.6" height="23.6" rx="3.8" stroke="#E1E5ED" stroke-width="0.4"/>
<path d="M12.0004 3.04587C7.03036 3.04587 3 7.07478 3 12.0455C3 16.0224 5.57897 19.3957 9.15468 20.5854C9.60426 20.6686 9.76979 20.3903 9.76979 20.1525C9.76979 19.9378 9.76111 19.2287 9.7575 18.477C7.2537 19.0213 6.72533 17.4152 6.72533 17.4152C6.31623 16.3751 5.7257 16.0983 5.7257 16.0983C4.90893 15.5395 5.78713 15.5511 5.78713 15.5511C6.69064 15.6147 7.16697 16.4785 7.16697 16.4785C7.97 17.8547 9.2725 17.4564 9.78569 17.2266C9.86664 16.6447 10.0994 16.2479 10.3574 16.0231C8.35815 15.7954 6.25696 15.0235 6.25696 11.575C6.25696 10.5927 6.60824 9.78963 7.18432 9.15935C7.09107 8.93311 6.78316 8.01804 7.27177 6.77843C7.27177 6.77843 8.02783 6.53629 9.74738 7.70073C10.4651 7.50123 11.2349 7.40149 12.0004 7.39787C12.7651 7.40149 13.5356 7.50123 14.2548 7.70073C15.9729 6.53629 16.7275 6.77843 16.7275 6.77843C17.2176 8.01804 16.9089 8.93383 16.8157 9.16007C17.3925 9.79036 17.7416 10.5934 17.7416 11.5757C17.7416 15.0321 15.6361 15.794 13.6317 16.0166C13.9548 16.2956 14.2425 16.8435 14.2425 17.6834C14.2425 18.8876 14.2324 19.8569 14.2324 20.1532C14.2324 20.3924 14.3943 20.6736 14.8504 20.5847C18.4246 19.3935 21 16.0209 21 12.0455C21 7.07478 16.9704 3.04587 12.0004 3.04587Z" fill="#E1E5ED"/>
</svg>
