<svg width="24" height="24" viewBox="0 0 24 24" fill="none" xmlns="http://www.w3.org/2000/svg">
<rect x="0.2" y="0.2" width="23.6" height="23.6" rx="3.8" stroke="#4D4D4D" stroke-width="0.4"/>
<g clip-path="url(#clip0_124_2285)">
<path d="M9.68869 3.4993C7.05032 3.69453 4.8074 3.87407 4.70195 3.89509C4.40627 3.94782 4.1373 4.14838 4.01082 4.41235L3.90002 4.64462L3.9107 10.1803L3.92639 15.716L4.09525 16.0591C4.19036 16.249 4.8341 17.1357 5.53591 18.0484C6.92384 19.8478 7.02396 19.9483 7.55157 20.001C7.70474 20.0167 8.85507 19.9639 10.1005 19.8902C11.3513 19.8111 13.3563 19.6896 14.5596 19.6212C19.6992 19.3092 19.4353 19.3356 19.7306 19.0823C20.1 18.7762 20.0737 19.2775 20.0893 12.5494C20.1 6.84483 20.0947 6.47039 20.0103 6.29619C19.9101 6.10097 19.7306 5.96381 17.3876 4.31725C15.8204 3.21965 15.7096 3.16158 15.0075 3.1509C14.7175 3.14056 12.3217 3.29874 9.68869 3.4993ZM15.6199 4.22214C15.8415 4.32225 17.4617 5.45155 17.6989 5.66814C17.7623 5.73154 17.7834 5.78427 17.7517 5.81597C17.6779 5.87938 7.65135 6.47573 7.36135 6.43335C7.22953 6.41233 7.0343 6.33324 6.92351 6.25915C6.46431 5.94779 5.32467 5.01371 5.32467 4.9453C5.32467 4.76576 5.28762 4.76576 9.75744 4.44406C10.6124 4.38599 12.016 4.28054 12.871 4.21179C14.7228 4.06395 15.2771 4.06929 15.6199 4.22214ZM18.8072 7.1088C18.881 7.18255 18.9444 7.32504 18.9654 7.4622C18.9811 7.58902 18.9917 9.95307 18.9811 12.7076C18.9654 17.4357 18.96 17.7314 18.8703 17.8685C18.8175 17.953 18.7121 18.0427 18.6327 18.0691C18.4114 18.1589 7.90497 18.7552 7.68872 18.6918C7.58861 18.6654 7.45112 18.581 7.37736 18.5073L7.25055 18.3701L7.23487 13.2726C7.22419 9.69478 7.23487 8.11162 7.27725 7.96912C7.30895 7.86367 7.38804 7.73685 7.45679 7.6948C7.5519 7.6314 8.17462 7.57867 10.3171 7.45219C11.8212 7.36776 14.1482 7.22526 15.4834 7.14617C18.6594 6.95061 18.649 6.95061 18.8072 7.1088Z" fill="#4D4D4D"/>
<path d="M15.9839 8.85548C15.4139 8.89252 14.9073 8.94525 14.8493 8.97695C14.6751 9.06672 14.5696 9.21456 14.5486 9.38342C14.5329 9.55762 14.5856 9.57864 15.1553 9.64739L15.4032 9.67909V11.9324C15.4032 13.2726 15.3822 14.1593 15.3559 14.1329C15.3295 14.1012 14.5803 12.9615 13.6883 11.6C12.7966 10.2334 12.0577 9.1091 12.047 9.09876C12.0364 9.08808 11.456 9.11978 10.7596 9.1675C9.90457 9.22557 9.43503 9.2783 9.33992 9.33103C9.18674 9.41012 9.01788 9.68977 9.01788 9.87465C9.01788 9.98545 9.21845 10.0435 9.6406 10.0435H9.86219V16.5236L9.50344 16.6344C9.22379 16.7189 9.12868 16.7716 9.08129 16.8771C8.99686 17.0566 9.0022 17.2201 9.08663 17.2201C9.11833 17.2201 9.71469 17.1831 10.4005 17.141C11.7567 17.0619 11.9095 17.0249 12.052 16.7452C12.0944 16.6608 12.1311 16.571 12.1311 16.5447C12.1311 16.5236 11.9466 16.4602 11.7247 16.4075C11.4977 16.3548 11.2708 16.3021 11.2234 16.2914C11.1337 16.265 11.1283 16.1015 11.1283 13.8322V11.3994L12.7325 13.9166C14.4158 16.555 14.627 16.856 14.8856 16.9879C15.2077 17.1567 16.0256 17.0406 16.4371 16.7716L16.5639 16.6925L16.5746 13.0937L16.5903 9.48954L16.8699 9.43681C17.2023 9.37341 17.3555 9.22057 17.3555 8.95659C17.3555 8.78773 17.3448 8.77705 17.1866 8.78239C17.0922 8.78673 16.5486 8.81844 15.9839 8.85548Z" fill="#4D4D4D"/>
</g>
<defs>
<clipPath id="clip0_124_2285">
<rect width="16.2" height="17.2414" fill="white" transform="translate(3.90002 2.95786)"/>
</clipPath>
</defs>
</svg>
