<svg width="24" height="24" viewBox="0 0 24 24" fill="none" xmlns="http://www.w3.org/2000/svg">
<rect x="0.2" y="0.2" width="23.6" height="23.6" rx="3.8" stroke="#E1E5ED" stroke-width="0.4"/>
<g clip-path="url(#clip0_124_2450)">
<path fill-rule="evenodd" clip-rule="evenodd" d="M9.83967 3.90179C8.94416 3.90246 8.21941 4.62919 8.22007 5.52471C8.21941 6.42022 8.94482 7.14696 9.84033 7.14762H11.4606V5.52537C11.4613 4.62985 10.7358 3.90312 9.83967 3.90179C9.84033 3.90179 9.84033 3.90179 9.83967 3.90179ZM9.83967 8.23044H5.52029C4.62478 8.2311 3.89936 8.95784 3.90003 9.85335C3.8987 10.7489 4.62412 11.4756 5.51963 11.4769H9.83967C10.7352 11.4763 11.4606 10.7495 11.4599 9.85402C11.4606 8.95784 10.7352 8.2311 9.83967 8.23044Z" fill="#E1E5ED"/>
<path fill-rule="evenodd" clip-rule="evenodd" d="M20.1 9.85332C20.1006 8.95781 19.3752 8.23107 18.4797 8.23041C17.5842 8.23107 16.8588 8.95781 16.8594 9.85332V11.4769H18.4797C19.3752 11.4762 20.1006 10.7495 20.1 9.85332ZM15.7799 9.85332V5.52468C15.7806 4.62982 15.0558 3.90309 14.1603 3.90176C13.2648 3.90243 12.5394 4.62916 12.54 5.52468V9.85332C12.5387 10.7488 13.2641 11.4756 14.1596 11.4769C15.0552 11.4762 15.7806 10.7495 15.7799 9.85332Z" fill="#E1E5ED"/>
<path fill-rule="evenodd" clip-rule="evenodd" d="M14.1597 20.1342C15.0552 20.1335 15.7806 19.4068 15.78 18.5113C15.7806 17.6158 15.0552 16.889 14.1597 16.8884H12.5394V18.5113C12.5388 19.4061 13.2642 20.1329 14.1597 20.1342ZM14.1597 15.8049H18.4797C19.3753 15.8042 20.1007 15.0775 20.1 14.182C20.1013 13.2865 19.3759 12.5597 18.4804 12.5584H14.1604C13.2648 12.5591 12.5394 13.2858 12.5401 14.1813C12.5394 15.0775 13.2642 15.8042 14.1597 15.8049Z" fill="#E1E5ED"/>
<path fill-rule="evenodd" clip-rule="evenodd" d="M3.90002 14.182C3.89936 15.0775 4.62478 15.8042 5.52029 15.8049C6.4158 15.8042 7.14122 15.0775 7.14055 14.182V12.5591H5.52029C4.62478 12.5597 3.89936 13.2865 3.90002 14.182ZM8.22007 14.182V18.5106C8.21874 19.4061 8.94416 20.1329 9.83967 20.1342C10.7352 20.1335 11.4606 19.4068 11.4599 18.5113V14.1833C11.4613 13.2878 10.7358 12.5611 9.84033 12.5597C8.94416 12.5597 8.21941 13.2865 8.22007 14.182Z" fill="#E1E5ED"/>
</g>
<defs>
<clipPath id="clip0_124_2450">
<rect width="16.2" height="16.2324" fill="white" transform="translate(3.90002 3.90179)"/>
</clipPath>
</defs>
</svg>
