<svg width="384" height="288" viewBox="0 0 384 288" fill="none" xmlns="http://www.w3.org/2000/svg">
<rect width="384" height="288" fill="white"/>
<path d="M74.1299 178.001V110.999C74.1299 110.447 74.5776 109.999 75.1299 109.999H105.368C112.775 109.999 118.61 111.985 122.873 115.957C127.136 119.86 129.268 125.168 129.268 131.879C129.268 138.59 127.136 143.932 122.873 147.903C118.61 151.807 112.775 153.759 105.368 153.759H81.9917V178.001H74.1299ZM81.9917 146.568H104.844C110.294 146.568 114.417 145.267 117.213 142.665C120.008 140.062 121.406 136.467 121.406 131.879C121.406 127.359 120.008 123.798 117.213 121.196C114.417 118.593 110.294 117.292 104.844 117.292H81.9917V146.568Z" fill="#191919"/>
<path d="M139.952 178.001V109.999H147.814V178.001H139.952Z" fill="#191919"/>
<path d="M164.828 178.001V109.999H173.948L198.791 142.254L223.215 109.999H232.335V178.001H224.473V121.709L198.791 154.067L172.69 121.709V178.001H164.828Z" fill="#191919"/>
<path d="M241.105 178.001L270.561 109.999H280.414L309.87 178.001H301.169L292.679 158.278H258.296L249.805 178.001H241.105ZM261.336 151.191H289.639L275.487 118.011L261.336 151.191Z" fill="#191919"/>
</svg>
