<svg width="384" height="288" viewBox="0 0 384 288" fill="none" xmlns="http://www.w3.org/2000/svg">
<rect width="384" height="288" fill="white"/>
<path d="M265.466 169.704L276.338 118.296H305.066L303.194 127.224H285.194L282.818 138.528H299.594L297.65 147.456H280.874L278.066 160.704H296.066L294.194 169.704H265.466Z" fill="#FF697B"/>
<path d="M201.114 169.704L211.986 118.296H226.17L228.474 156.744H228.762L248.058 118.296H262.962L252.09 169.704H242.226L247.338 145.368C247.674 143.736 248.058 142.008 248.49 140.184C248.97 138.312 249.426 136.488 249.858 134.712C250.338 132.888 250.77 131.28 251.154 129.888H250.866L230.85 169.704H220.986L218.826 129.888H218.538C218.442 130.896 218.25 132.288 217.962 134.064C217.674 135.792 217.338 137.688 216.954 139.752C216.618 141.816 216.234 143.832 215.802 145.8L210.762 169.704H201.114Z" fill="#FF697B"/>
<path d="M145.763 169.704L156.635 118.296H169.163L181.115 156.168H181.403C181.547 155.4 181.691 154.464 181.835 153.36C182.027 152.256 182.219 151.08 182.411 149.832C182.651 148.536 182.891 147.264 183.131 146.016C183.371 144.768 183.587 143.64 183.779 142.632L188.963 118.296H198.611L187.739 169.704H175.715L163.187 130.824H162.827C162.779 131.112 162.683 131.808 162.539 132.912C162.395 133.968 162.203 135.24 161.963 136.728C161.771 138.216 161.531 139.752 161.243 141.336C161.003 142.872 160.763 144.264 160.523 145.512L155.411 169.704H145.763Z" fill="#FF697B"/>
<path d="M113.239 169.704L114.535 163.512L121.087 160.632L128.143 127.368L122.815 124.488L124.111 118.296H146.863L145.567 124.488L138.871 127.368L131.815 160.632L137.287 163.512L135.991 169.704H113.239Z" fill="#FF697B"/>
<path d="M78.9346 169.704L89.8066 118.296H100.535L91.5346 160.704H109.535L107.663 169.704H78.9346Z" fill="#FF697B"/>
</svg>
